<svg width="32" height="33" viewBox="0 0 32 33" fill="none" xmlns="http://www.w3.org/2000/svg">
<path d="M9 13.5H23" stroke="url(#paint0_linear_1524_10380)" stroke-width="2" stroke-miterlimit="10" stroke-linecap="round" stroke-linejoin="round"/>
<path d="M21 9.5H11C9.9 9.5 9 10.4 9 11.5V21.5C9 22.6 9.9 23.5 11 23.5H21C22.1 23.5 23 22.6 23 21.5V11.5C23 10.4 22.1 9.5 21 9.5Z" stroke="url(#paint1_linear_1524_10380)" stroke-width="2" stroke-miterlimit="10" stroke-linecap="round" stroke-linejoin="round"/>
<path d="M26.5984 5.89844L5.39844 27.0984" stroke="white" stroke-width="2" stroke-miterlimit="10" stroke-linecap="round" stroke-linejoin="round"/>
<path d="M9.5 2.97766C11.4665 2.03066 13.6713 1.5 16 1.5C24.2843 1.5 31 8.21573 31 16.5C31 24.7843 24.2843 31.5 16 31.5C7.71573 31.5 1 24.7843 1 16.5C1 13.3442 1.97455 10.416 3.6391 8" stroke="white" stroke-width="2" stroke-miterlimit="10" stroke-linecap="round" stroke-linejoin="round"/>
<defs>
<linearGradient id="paint0_linear_1524_10380" x1="8" y1="13.6922" x2="17.9444" y2="13.6922" gradientUnits="userSpaceOnUse">
<stop stop-color="#BB6BD9"/>
<stop offset="1" stop-color="#F27A54"/>
</linearGradient>
<linearGradient id="paint1_linear_1524_10380" x1="8" y1="11.5756" x2="17.9444" y2="11.5756" gradientUnits="userSpaceOnUse">
<stop stop-color="#BB6BD9"/>
<stop offset="1" stop-color="#F27A54"/>
</linearGradient>
</defs>
</svg>
