<svg width="454" height="120" viewBox="0 0 454 120" fill="none" xmlns="http://www.w3.org/2000/svg">
<g clip-path="url(#clip0_1528_16851)">
<rect x="0.5" width="453" height="120" fill="url(#paint0_linear_1528_16851)"/>
<path d="M838.547 216.973L1.17975 -126.211L831.117 10.6751C844.929 12.9978 857.122 19.8604 865.075 29.7871C872.863 39.7809 875.725 51.9962 873.042 63.7827L838.547 216.973Z" fill="url(#paint1_linear_1528_16851)"/>
<path d="M809.525 429.043L-33.5566 -91.9177L775.931 239.937L841.697 266.725C849.444 269.918 856.175 274.66 861.321 280.55C866.466 286.44 869.874 293.304 871.255 300.559C872.934 309.615 871.329 318.892 866.655 327.144L809.525 429.043Z" fill="url(#paint2_linear_1528_16851)"/>
</g>
<defs>
<linearGradient id="paint0_linear_1528_16851" x1="31.7349" y1="-1.0105e-05" x2="341.952" y2="255.459" gradientUnits="userSpaceOnUse">
<stop stop-color="#8159D5"/>
<stop offset="1" stop-color="#6300B0"/>
</linearGradient>
<linearGradient id="paint1_linear_1528_16851" x1="861.495" y1="-15.2442" x2="50.6661" y2="137.127" gradientUnits="userSpaceOnUse">
<stop stop-color="#090909" stop-opacity="0"/>
<stop offset="1" stop-opacity="0.19"/>
</linearGradient>
<linearGradient id="paint2_linear_1528_16851" x1="834.921" y1="107.209" x2="32.21" y2="258.054" gradientUnits="userSpaceOnUse">
<stop stop-color="#090909" stop-opacity="0"/>
<stop offset="1" stop-opacity="0.19"/>
</linearGradient>
<clipPath id="clip0_1528_16851">
<rect width="453" height="120" fill="white" transform="translate(0.5)"/>
</clipPath>
</defs>
</svg>
