<svg width="20" height="18" viewBox="0 0 20 18" fill="none" xmlns="http://www.w3.org/2000/svg">
<path d="M19.0838 3.685L14.5229 6.49516L10.1494 0.661563C10.1318 0.638083 10.109 0.619025 10.0828 0.605898C10.0565 0.592772 10.0276 0.585938 9.99824 0.585938C9.9689 0.585938 9.93996 0.592772 9.91372 0.605898C9.88748 0.619025 9.86466 0.638083 9.84707 0.661563L5.47597 6.49516L0.912692 3.685C0.779099 3.60297 0.605661 3.71312 0.626755 3.87016L2.41738 17.478C2.44316 17.6631 2.60254 17.8061 2.79238 17.8061H17.2088C17.3963 17.8061 17.558 17.6655 17.5814 17.478L19.3721 3.87016C19.3908 3.71312 19.2197 3.60297 19.0838 3.685ZM16.1307 16.203H3.86582L2.60488 6.60766L5.88144 8.62563L9.99941 3.13188L14.1174 8.62563L17.3939 6.60766L16.1307 16.203Z" fill="#FFB81C"/>
</svg>
