<svg width="42" height="42" viewBox="0 0 42 42" fill="none" xmlns="http://www.w3.org/2000/svg">
<path d="M12.125 33.6484C11.4921 32.5092 11.1123 31.2433 10.9857 29.8509L10.8591 29.8509C5.92231 29.8509 1.99816 25.9267 1.99816 20.9899C1.99816 16.053 5.92231 12.1289 10.8591 12.1289L11.2389 12.1289" stroke="white" stroke-width="2.53171" stroke-miterlimit="10" stroke-linecap="round" stroke-linejoin="round"/>
<path d="M30.8608 12.1277L32.5064 12.1277C36.6838 12.1277 40.1016 15.5455 40.1016 19.7229C40.1016 23.5204 37.3167 26.6851 33.6457 27.1914C33.6457 27.6978 33.7723 28.0775 33.7723 28.5839C33.7723 34.9131 28.7089 39.9766 22.3796 39.9766C20.101 39.9766 17.8225 39.217 16.0503 38.0778" stroke="white" stroke-width="2.53171" stroke-miterlimit="10" stroke-linecap="round" stroke-linejoin="round"/>
<path d="M30.606 11.7473C29.7199 10.7346 28.0743 10.4814 27.0616 11.3675L23.6438 14.279L23.6438 4.53192C23.6438 3.13948 22.5045 2.00021 21.1121 2.00021C19.7196 2.00021 18.5804 3.13948 18.5804 4.53192L18.5804 14.279L15.1626 11.3675C14.1499 10.4814 12.5043 10.608 11.6182 11.7473C10.7321 12.76 10.8587 14.4056 11.9979 15.2917L19.5931 21.621C19.5931 21.621 19.7196 21.621 19.7196 21.7476L19.8462 21.8741C19.9728 21.8741 19.9728 22.0007 20.0994 22.0007C20.0994 22.0007 20.226 22.0007 20.226 22.1273C20.3526 22.1273 20.3526 22.2539 20.4792 22.2539L20.6057 22.2539C20.7323 22.2539 20.8589 22.2539 21.1121 22.2539C21.3653 22.2539 21.3653 22.2539 21.6184 22.2539L21.745 22.2539C21.8716 22.2539 21.9982 22.2539 21.9982 22.1273C21.9982 22.1273 22.1248 22.1273 22.1248 22.0007C22.2513 22.0007 22.2513 21.8741 22.3779 21.8741L22.5045 21.7476C22.5045 21.7476 22.6311 21.7476 22.6311 21.621L30.2262 15.2917C31.3655 14.4056 31.4921 12.8866 30.606 11.7473Z" stroke="url(#paint0_linear_1522_9979)" stroke-width="2.53171" stroke-miterlimit="10" stroke-linecap="round" stroke-linejoin="round"/>
<defs>
<linearGradient id="paint0_linear_1522_9979" x1="31.1875" y1="18.3607" x2="18.6632" y2="18.3607" gradientUnits="userSpaceOnUse">
<stop stop-color="#0094FF"/>
<stop offset="1" stop-color="#00AFAF"/>
</linearGradient>
</defs>
</svg>
