<svg width="236" height="236" viewBox="0 0 236 236" fill="none" xmlns="http://www.w3.org/2000/svg">
<circle cx="53.5424" cy="53.5971" r="5.10491" fill="url(#paint0_linear_1528_14437)"/>
<circle cx="41.5391" cy="68.4085" r="5.10491" transform="rotate(-12 41.5391 68.4085)" fill="url(#paint1_linear_1528_14437)"/>
<circle cx="32.8962" cy="85.3919" r="5.10491" transform="rotate(-24 32.8962 85.3919)" fill="url(#paint2_linear_1528_14437)"/>
<circle cx="27.9587" cy="103.801" r="5.10491" transform="rotate(-36 27.9587 103.801)" fill="url(#paint3_linear_1528_14437)"/>
<circle cx="26.9595" cy="122.833" r="5.10491" transform="rotate(-48 26.9595 122.833)" fill="url(#paint4_linear_1528_14437)"/>
<circle cx="29.9422" cy="141.655" r="5.10491" transform="rotate(-60 29.9422 141.655)" fill="url(#paint5_linear_1528_14437)"/>
<circle cx="36.7763" cy="159.449" r="5.10491" transform="rotate(-72 36.7763 159.449)" fill="url(#paint6_linear_1528_14437)"/>
<circle cx="47.1574" cy="175.437" r="5.10491" transform="rotate(-84 47.1574 175.437)" fill="url(#paint7_linear_1528_14437)"/>
<circle cx="60.6293" cy="188.913" r="5.10491" transform="rotate(-96 60.6293 188.913)" fill="url(#paint8_linear_1528_14437)"/>
<circle cx="76.6135" cy="199.294" r="5.10491" transform="rotate(-108 76.6135 199.294)" fill="url(#paint9_linear_1528_14437)"/>
<circle cx="94.4076" cy="206.12" r="5.10491" transform="rotate(-120 94.4076 206.12)" fill="url(#paint10_linear_1528_14437)"/>
<circle cx="113.237" cy="209.103" r="5.10491" transform="rotate(-132 113.237 209.103)" fill="url(#paint11_linear_1528_14437)"/>
<circle cx="132.261" cy="208.104" r="5.10491" transform="rotate(-144 132.261 208.104)" fill="url(#paint12_linear_1528_14437)"/>
<circle cx="150.678" cy="203.174" r="5.10491" transform="rotate(-156 150.678 203.174)" fill="url(#paint13_linear_1528_14437)"/>
<circle cx="167.654" cy="194.52" r="5.10491" transform="rotate(-168 167.654 194.52)" fill="url(#paint14_linear_1528_14437)"/>
<circle cx="182.473" cy="182.528" r="5.10491" transform="rotate(-180 182.473 182.528)" fill="url(#paint15_linear_1528_14437)"/>
<circle cx="194.461" cy="167.716" r="5.10491" transform="rotate(168 194.461 167.716)" fill="url(#paint16_linear_1528_14437)"/>
<circle cx="203.112" cy="150.733" r="5.10491" transform="rotate(156 203.112 150.733)" fill="url(#paint17_linear_1528_14437)"/>
<circle cx="208.041" cy="132.324" r="5.10491" transform="rotate(144 208.041 132.324)" fill="url(#paint18_linear_1528_14437)"/>
<circle cx="209.04" cy="113.292" r="5.10491" transform="rotate(132 209.04 113.292)" fill="url(#paint19_linear_1528_14437)"/>
<circle cx="206.058" cy="94.4701" r="5.10491" transform="rotate(120 206.058 94.4701)" fill="url(#paint20_linear_1528_14437)"/>
<circle cx="199.224" cy="76.676" r="5.10491" transform="rotate(108 199.224 76.676)" fill="url(#paint21_linear_1528_14437)"/>
<circle cx="188.85" cy="60.6918" r="5.10491" transform="rotate(96 188.85 60.6918)" fill="url(#paint22_linear_1528_14437)"/>
<circle cx="175.371" cy="47.2121" r="5.10491" transform="rotate(84 175.371 47.2121)" fill="url(#paint23_linear_1528_14437)"/>
<circle cx="159.394" cy="36.831" r="5.10491" transform="rotate(72 159.394 36.831)" fill="url(#paint24_linear_1528_14437)"/>
<circle cx="141.6" cy="30.0047" r="5.10491" transform="rotate(60 141.6 30.0047)" fill="url(#paint25_linear_1528_14437)"/>
<circle cx="122.771" cy="27.022" r="5.10491" transform="rotate(48 122.771 27.022)" fill="url(#paint26_linear_1528_14437)"/>
<circle cx="103.739" cy="28.0212" r="5.10491" transform="rotate(36 103.739 28.0212)" fill="url(#paint27_linear_1528_14437)"/>
<circle cx="85.3294" cy="32.9509" r="5.10491" transform="rotate(24 85.3294 32.9509)" fill="url(#paint28_linear_1528_14437)"/>
<circle cx="68.346" cy="41.6055" r="5.10491" transform="rotate(12 68.346 41.6055)" fill="url(#paint29_linear_1528_14437)"/>
<circle cx="40.9242" cy="40.9828" r="6.10388" fill="url(#paint30_linear_1528_14437)"/>
<circle cx="26.5833" cy="58.6936" r="6.10388" transform="rotate(-12 26.5833 58.6936)" fill="url(#paint31_linear_1528_14437)"/>
<circle cx="16.2307" cy="78.9997" r="6.10388" transform="rotate(-24 16.2307 78.9997)" fill="url(#paint32_linear_1528_14437)"/>
<circle cx="10.3384" cy="101.014" r="6.10388" transform="rotate(-36 10.3384 101.014)" fill="url(#paint33_linear_1528_14437)"/>
<circle cx="9.1438" cy="123.767" r="6.10388" transform="rotate(-48 9.1438 123.767)" fill="url(#paint34_linear_1528_14437)"/>
<circle cx="12.7131" cy="146.274" r="6.10388" transform="rotate(-60 12.7131 146.274)" fill="url(#paint35_linear_1528_14437)"/>
<circle cx="20.8788" cy="167.55" r="6.10388" transform="rotate(-72 20.8788 167.55)" fill="url(#paint36_linear_1528_14437)"/>
<circle cx="33.2866" cy="186.665" r="6.10388" transform="rotate(-84 33.2866 186.665)" fill="url(#paint37_linear_1528_14437)"/>
<circle cx="49.4012" cy="202.776" r="6.10388" transform="rotate(-96 49.4012 202.776)" fill="url(#paint38_linear_1528_14437)"/>
<circle cx="68.5127" cy="215.191" r="6.10388" transform="rotate(-108 68.5127 215.191)" fill="url(#paint39_linear_1528_14437)"/>
<circle cx="89.7889" cy="223.357" r="6.10388" transform="rotate(-120 89.7889 223.357)" fill="url(#paint40_linear_1528_14437)"/>
<circle cx="112.296" cy="226.919" r="6.10388" transform="rotate(-132 112.296 226.919)" fill="url(#paint41_linear_1528_14437)"/>
<circle cx="135.056" cy="225.724" r="6.10388" transform="rotate(-144 135.056 225.724)" fill="url(#paint42_linear_1528_14437)"/>
<circle cx="157.063" cy="219.828" r="6.10388" transform="rotate(-156 157.063 219.828)" fill="url(#paint43_linear_1528_14437)"/>
<circle cx="177.377" cy="209.479" r="6.10388" transform="rotate(-168 177.377 209.479)" fill="url(#paint44_linear_1528_14437)"/>
<circle cx="195.084" cy="195.142" r="6.10388" transform="rotate(-180 195.084 195.142)" fill="url(#paint45_linear_1528_14437)"/>
<circle cx="209.424" cy="177.431" r="6.10388" transform="rotate(168 209.424 177.431)" fill="url(#paint46_linear_1528_14437)"/>
<circle cx="219.769" cy="157.129" r="6.10388" transform="rotate(156 219.769 157.129)" fill="url(#paint47_linear_1528_14437)"/>
<circle cx="225.662" cy="135.114" r="6.10388" transform="rotate(144 225.662 135.114)" fill="url(#paint48_linear_1528_14437)"/>
<circle cx="226.864" cy="112.358" r="6.10388" transform="rotate(132 226.864 112.358)" fill="url(#paint49_linear_1528_14437)"/>
<circle cx="223.295" cy="89.8514" r="6.10388" transform="rotate(120 223.295 89.8514)" fill="url(#paint50_linear_1528_14437)"/>
<circle cx="215.121" cy="68.5752" r="6.10388" transform="rotate(108 215.121 68.5752)" fill="url(#paint51_linear_1528_14437)"/>
<circle cx="202.713" cy="49.4637" r="6.10388" transform="rotate(96 202.713 49.4637)" fill="url(#paint52_linear_1528_14437)"/>
<circle cx="186.599" cy="33.3491" r="6.10388" transform="rotate(84 186.599 33.3491)" fill="url(#paint53_linear_1528_14437)"/>
<circle cx="167.487" cy="20.9335" r="6.10388" transform="rotate(72 167.487 20.9335)" fill="url(#paint54_linear_1528_14437)"/>
<circle cx="146.211" cy="12.7717" r="6.10388" transform="rotate(60 146.211 12.7717)" fill="url(#paint55_linear_1528_14437)"/>
<circle cx="123.704" cy="9.2063" r="6.10388" transform="rotate(48 123.704 9.2063)" fill="url(#paint56_linear_1528_14437)"/>
<circle cx="100.944" cy="10.4009" r="6.10388" transform="rotate(36 100.944 10.4009)" fill="url(#paint57_linear_1528_14437)"/>
<circle cx="78.9372" cy="16.2971" r="6.10388" transform="rotate(24 78.9372 16.2971)" fill="url(#paint58_linear_1528_14437)"/>
<circle cx="58.6311" cy="26.6458" r="6.10388" transform="rotate(12 58.6311 26.6458)" fill="url(#paint59_linear_1528_14437)"/>
<g filter="url(#filter0_ddi_1528_14437)">
<circle cx="117.999" cy="118.774" r="81.7979" transform="rotate(90 117.999 118.774)" fill="url(#paint60_angular_1528_14437)"/>
</g>
<circle cx="117.991" cy="118.771" r="78.8765" transform="rotate(90 117.991 118.771)" fill="url(#paint61_angular_1528_14437)"/>
<g filter="url(#filter1_d_1528_14437)">
<mask id="path-63-inside-1_1528_14437" fill="white">
<path fill-rule="evenodd" clip-rule="evenodd" d="M188.695 118.775C188.695 118.13 188.172 117.607 187.527 117.607L175.257 117.607C174.612 117.607 174.089 118.13 174.089 118.775C174.089 119.421 174.612 119.944 175.257 119.944L187.527 119.944C188.172 119.944 188.695 119.421 188.695 118.775ZM61.9102 118.775C61.9102 118.13 61.387 117.607 60.7416 117.607L48.4719 117.607C47.8266 117.607 47.3034 118.13 47.3034 118.775C47.3034 119.421 47.8266 119.944 48.4719 119.944L60.7416 119.944C61.387 119.944 61.9102 119.421 61.9102 118.775ZM185.463 135.644C186.086 135.811 186.456 136.452 186.289 137.075C186.122 137.699 185.482 138.069 184.858 137.902L173.007 134.726C172.383 134.559 172.013 133.918 172.18 133.295C172.347 132.671 172.988 132.301 173.611 132.469L185.463 135.644ZM63.8206 104.259C63.9876 103.636 63.6177 102.995 62.9943 102.828L51.1427 99.6521C50.5193 99.4851 49.8786 99.855 49.7116 100.478C49.5445 101.102 49.9145 101.743 50.5378 101.91L62.3894 105.085C63.0128 105.252 63.6536 104.882 63.8206 104.259ZM178.797 152.526C179.356 152.849 179.547 153.564 179.224 154.123C178.902 154.682 178.187 154.873 177.628 154.55L167.002 148.416C166.443 148.093 166.252 147.378 166.574 146.819C166.897 146.26 167.612 146.069 168.171 146.392L178.797 152.526ZM69.4216 90.7281C69.7443 90.1692 69.5528 89.4545 68.9939 89.1319L58.368 82.997C57.8091 82.6743 57.0945 82.8658 56.7718 83.4247C56.4491 83.9836 56.6406 84.6983 57.1995 85.021L67.8253 91.1558C68.3842 91.4785 69.0989 91.287 69.4216 90.7281ZM167.99 167.116C168.446 167.573 168.446 168.313 167.99 168.769C167.534 169.225 166.794 169.225 166.338 168.769L157.662 160.093C157.205 159.637 157.205 158.897 157.662 158.44C158.118 157.984 158.858 157.984 159.314 158.44L167.99 167.116ZM78.3378 79.1166C78.7941 78.6603 78.7941 77.9204 78.3378 77.4641L69.6618 68.7881C69.2055 68.3317 68.4656 68.3317 68.0092 68.7881C67.5529 69.2444 67.5529 69.9843 68.0092 70.4407L76.6852 79.1166C77.1416 79.573 77.8814 79.573 78.3378 79.1166ZM153.775 178.407C154.098 178.966 153.906 179.681 153.347 180.004C152.788 180.326 152.074 180.135 151.751 179.576L145.616 168.95C145.294 168.391 145.485 167.676 146.044 167.354C146.603 167.031 147.318 167.223 147.64 167.781L153.775 178.407ZM89.9548 70.2067C90.5137 69.884 90.7052 69.1693 90.3825 68.6104L84.2477 57.9845C83.925 57.4256 83.2103 57.2341 82.6514 57.5568C82.0925 57.8795 81.901 58.5942 82.2237 59.1531L88.3586 69.7789C88.6812 70.3378 89.3959 70.5293 89.9548 70.2067ZM137.121 185.63C137.288 186.254 136.918 186.895 136.295 187.062C135.672 187.229 135.031 186.859 134.864 186.235L131.688 174.384C131.521 173.76 131.891 173.12 132.515 172.953C133.138 172.785 133.779 173.155 133.946 173.779L137.121 185.63ZM103.481 64.6006C104.104 64.4336 104.474 63.7928 104.307 63.1694L101.131 51.3178C100.964 50.6945 100.324 50.3245 99.7001 50.4916C99.0768 50.6586 98.7068 51.2993 98.8739 51.9227L102.049 63.7743C102.217 64.3977 102.857 64.7676 103.481 64.6006ZM119.166 188.305C119.166 188.951 118.643 189.474 117.997 189.474C117.352 189.474 116.829 188.951 116.829 188.305L116.829 176.036C116.829 175.39 117.352 174.867 117.997 174.867C118.643 174.867 119.166 175.39 119.166 176.036L119.166 188.305ZM117.997 62.6849C118.643 62.6849 119.166 62.1617 119.166 61.5163L119.166 49.2467C119.166 48.6013 118.643 48.0781 117.997 48.0781C117.352 48.0781 116.829 48.6013 116.829 49.2467L116.829 61.5163C116.829 62.1617 117.352 62.6849 117.997 62.6849ZM101.131 186.236C100.964 186.859 100.323 187.229 99.6994 187.062C99.076 186.895 98.7061 186.254 98.8731 185.631L102.049 173.779C102.216 173.156 102.857 172.786 103.48 172.953C104.103 173.12 104.473 173.761 104.306 174.384L101.131 186.236ZM132.516 64.5973C133.139 64.7643 133.78 64.3944 133.947 63.771L137.123 51.9194C137.29 51.296 136.92 50.6553 136.296 50.4882C135.673 50.3212 135.032 50.6911 134.865 51.3145L131.69 63.1661C131.522 63.7895 131.892 64.4303 132.516 64.5973ZM84.2464 179.571C83.9237 180.13 83.209 180.322 82.6501 179.999C82.0912 179.676 81.8997 178.962 82.2224 178.403L88.3572 167.777C88.6799 167.218 89.3946 167.027 89.9535 167.349C90.5124 167.672 90.7039 168.387 90.3812 168.945L84.2464 179.571ZM146.043 70.21C146.602 70.5327 147.316 70.3412 147.639 69.7823L153.774 59.1564C154.096 58.5975 153.905 57.8828 153.346 57.5602C152.787 57.2375 152.073 57.429 151.75 57.9879L145.615 68.6137C145.292 69.1726 145.484 69.8873 146.043 70.21ZM69.6603 168.765C69.2039 169.221 68.464 169.221 68.0077 168.765C67.5514 168.309 67.5514 167.569 68.0077 167.112L76.6837 158.436C77.14 157.98 77.8799 157.98 78.3362 158.436C78.7926 158.893 78.7926 159.633 78.3362 160.089L69.6603 168.765ZM157.66 79.1125C158.116 79.5689 158.856 79.5689 159.313 79.1125L167.989 70.4365C168.445 69.9802 168.445 69.2403 167.989 68.784C167.532 68.3276 166.792 68.3276 166.336 68.784L157.66 77.4599C157.204 77.9163 157.204 78.6562 157.66 79.1125ZM58.3675 154.546C57.8085 154.869 57.0939 154.677 56.7712 154.118C56.4485 153.559 56.64 152.845 57.1989 152.522L67.8248 146.387C68.3837 146.064 69.0983 146.256 69.421 146.815C69.7437 147.374 69.5522 148.088 68.9933 148.411L58.3675 154.546ZM166.574 90.7276C166.897 91.2865 167.611 91.478 168.17 91.1553L178.796 85.0205C179.355 84.6978 179.546 83.9831 179.224 83.4242C178.901 82.8653 178.186 82.6738 177.627 82.9965L167.002 89.1313C166.443 89.454 166.251 90.1687 166.574 90.7276ZM51.1424 137.902C50.519 138.069 49.8783 137.699 49.7112 137.076C49.5442 136.452 49.9141 135.812 50.5375 135.645L62.3891 132.469C63.0125 132.302 63.6532 132.672 63.8203 133.295C63.9873 133.919 63.6174 134.559 62.994 134.726L51.1424 137.902ZM172.176 104.259C172.343 104.883 172.984 105.253 173.607 105.086L185.459 101.91C186.082 101.743 186.452 101.102 186.285 100.479C186.118 99.8554 185.477 99.4855 184.854 99.6525L173.002 102.828C172.379 102.995 172.009 103.636 172.176 104.259ZM186.783 108.541C187.423 108.456 188.01 108.907 188.094 109.547C188.178 110.186 187.728 110.773 187.088 110.858L174.923 112.459C174.283 112.543 173.696 112.093 173.612 111.453C173.528 110.813 173.978 110.226 174.618 110.142L186.783 108.541ZM62.3869 126.101C62.3027 125.461 61.7157 125.011 61.0758 125.095L48.9111 126.697C48.2713 126.781 47.8209 127.368 47.9051 128.008C47.9893 128.648 48.5763 129.098 49.2162 129.014L61.3809 127.412C62.0207 127.328 62.4711 126.741 62.3869 126.101ZM187.086 126.696C187.725 126.781 188.176 127.368 188.092 128.007C188.007 128.647 187.42 129.098 186.781 129.014L174.616 127.412C173.976 127.328 173.526 126.741 173.61 126.101C173.694 125.461 174.281 125.011 174.921 125.095L187.086 126.696ZM62.3904 111.457C62.4747 110.817 62.0243 110.23 61.3844 110.146L49.2197 108.544C48.5799 108.46 47.9929 108.91 47.9086 109.55C47.8244 110.19 48.2748 110.777 48.9147 110.861L61.0794 112.463C61.7192 112.547 62.3062 112.097 62.3904 111.457ZM182.678 144.3C183.274 144.547 183.558 145.231 183.311 145.827C183.064 146.423 182.38 146.706 181.784 146.459L170.448 141.764C169.852 141.517 169.569 140.833 169.816 140.237C170.063 139.641 170.746 139.358 171.343 139.605L182.678 144.3ZM66.1759 97.3113C66.4228 96.7151 66.1397 96.0315 65.5435 95.7846L54.2077 91.0892C53.6115 90.8422 52.9279 91.1253 52.681 91.7216C52.434 92.3178 52.7171 93.0014 53.3134 93.2484L64.6491 97.9438C65.2453 98.1907 65.9289 97.9076 66.1759 97.3113ZM173.868 160.181C174.38 160.573 174.476 161.307 174.084 161.819C173.691 162.331 172.957 162.428 172.445 162.035L162.711 154.565C162.199 154.172 162.102 153.439 162.495 152.927C162.888 152.415 163.622 152.318 164.134 152.711L173.868 160.181ZM73.4976 84.6276C73.8905 84.1156 73.7939 83.382 73.2819 82.9891L63.5477 75.5198C63.0357 75.127 62.3022 75.2235 61.9093 75.7355C61.5164 76.2475 61.613 76.9811 62.125 77.374L71.8592 84.8433C72.3712 85.2362 73.1047 85.1396 73.4976 84.6276ZM161.252 173.219C161.644 173.731 161.548 174.464 161.036 174.857C160.524 175.25 159.79 175.153 159.397 174.641L151.928 164.907C151.535 164.395 151.632 163.662 152.144 163.269C152.656 162.876 153.389 162.973 153.782 163.485L161.252 173.219ZM83.8542 74.283C84.3662 73.8901 84.4628 73.1565 84.0699 72.6445L76.6006 62.9103C76.2077 62.3983 75.4742 62.3018 74.9621 62.6946C74.4501 63.0875 74.3536 63.8211 74.7465 64.3331L82.2158 74.0673C82.6086 74.5793 83.3422 74.6758 83.8542 74.283ZM145.684 182.562C145.931 183.159 145.648 183.842 145.051 184.089C144.455 184.336 143.771 184.053 143.524 183.457L138.829 172.121C138.582 171.525 138.865 170.841 139.461 170.594C140.058 170.347 140.741 170.63 140.988 171.227L145.684 182.562ZM96.5356 66.9602C97.1319 66.7132 97.415 66.0297 97.1681 65.4334L92.4726 54.0977C92.2257 53.5015 91.5421 53.2183 90.9459 53.4653C90.3496 53.7123 90.0665 54.3958 90.3135 54.9921L95.0089 66.3278C95.2558 66.924 95.9394 67.2072 96.5356 66.9602ZM128.232 187.562C128.316 188.201 127.866 188.788 127.226 188.873C126.586 188.957 125.999 188.506 125.915 187.867L124.314 175.702C124.229 175.062 124.68 174.475 125.32 174.391C125.959 174.307 126.546 174.757 126.631 175.397L128.232 187.562ZM110.677 63.1655C111.317 63.0813 111.768 62.4943 111.683 61.8545L110.082 49.6898C109.998 49.0499 109.411 48.5995 108.771 48.6837C108.131 48.768 107.681 49.355 107.765 49.9948L109.366 62.1595C109.451 62.7994 110.038 63.2498 110.677 63.1655ZM110.08 187.858C109.996 188.498 109.409 188.949 108.769 188.864C108.129 188.78 107.679 188.193 107.763 187.553L109.365 175.389C109.449 174.749 110.036 174.298 110.676 174.383C111.316 174.467 111.766 175.054 111.682 175.694L110.08 187.858ZM125.318 63.1652C125.958 63.2494 126.545 62.799 126.629 62.1592L128.231 49.9944C128.315 49.3546 127.864 48.7676 127.225 48.6834C126.585 48.5991 125.998 49.0495 125.914 49.6894L124.312 61.8541C124.228 62.4939 124.678 63.0809 125.318 63.1652ZM92.4687 183.461C92.2217 184.057 91.5381 184.34 90.9419 184.093C90.3456 183.846 90.0625 183.163 90.3095 182.566L95.0049 171.231C95.2519 170.634 95.9354 170.351 96.5317 170.598C97.1279 170.845 97.411 171.529 97.1641 172.125L92.4687 183.461ZM139.463 66.9525C140.06 67.1995 140.743 66.9164 140.99 66.3201L145.686 54.9844C145.933 54.3882 145.649 53.7046 145.053 53.4577C144.457 53.2107 143.773 53.4938 143.526 54.0901L138.831 65.4258C138.584 66.022 138.867 66.7056 139.463 66.9525ZM76.6 174.656C76.2072 175.168 75.4736 175.265 74.9616 174.872C74.4496 174.479 74.353 173.746 74.7459 173.234L82.2152 163.499C82.6081 162.987 83.3416 162.891 83.8536 163.284C84.3656 163.677 84.4622 164.41 84.0693 164.922L76.6 174.656ZM152.143 74.2743C152.655 74.6672 153.389 74.5706 153.782 74.0586L161.251 64.3244C161.644 63.8124 161.547 63.0789 161.035 62.686C160.523 62.2931 159.79 62.3897 159.397 62.9017L151.928 72.6359C151.535 73.1479 151.631 73.8814 152.143 74.2743ZM63.5501 162.028C63.0381 162.421 62.3046 162.325 61.9117 161.813C61.5188 161.3 61.6154 160.567 62.1274 160.174L71.8616 152.705C72.3736 152.312 73.1071 152.408 73.5 152.92C73.8929 153.432 73.7963 154.166 73.2843 154.559L63.5501 162.028ZM162.498 84.6328C162.89 85.1448 163.624 85.2414 164.136 84.8485L173.87 77.3792C174.382 76.9863 174.479 76.2528 174.086 75.7408C173.693 75.2288 172.96 75.1322 172.448 75.5251L162.713 82.9944C162.201 83.3873 162.105 84.1208 162.498 84.6328ZM52.6817 145.832C52.4347 145.236 52.7179 144.552 53.3141 144.305L64.6498 139.61C65.2461 139.363 65.9296 139.646 66.1766 140.242C66.4236 140.838 66.1404 141.522 65.5442 141.769L54.2085 146.464C53.6123 146.711 52.9287 146.428 52.6817 145.832ZM169.818 97.3162C170.065 97.9125 170.749 98.1956 171.345 97.9486L182.681 93.2532C183.277 93.0063 183.56 92.3227 183.313 91.7265C183.066 91.1302 182.383 90.8471 181.787 91.0941L170.451 95.7895C169.855 96.0364 169.571 96.72 169.818 97.3162Z"/>
</mask>
<path fill-rule="evenodd" clip-rule="evenodd" d="M188.695 118.775C188.695 118.13 188.172 117.607 187.527 117.607L175.257 117.607C174.612 117.607 174.089 118.13 174.089 118.775C174.089 119.421 174.612 119.944 175.257 119.944L187.527 119.944C188.172 119.944 188.695 119.421 188.695 118.775ZM61.9102 118.775C61.9102 118.13 61.387 117.607 60.7416 117.607L48.4719 117.607C47.8266 117.607 47.3034 118.13 47.3034 118.775C47.3034 119.421 47.8266 119.944 48.4719 119.944L60.7416 119.944C61.387 119.944 61.9102 119.421 61.9102 118.775ZM185.463 135.644C186.086 135.811 186.456 136.452 186.289 137.075C186.122 137.699 185.482 138.069 184.858 137.902L173.007 134.726C172.383 134.559 172.013 133.918 172.18 133.295C172.347 132.671 172.988 132.301 173.611 132.469L185.463 135.644ZM63.8206 104.259C63.9876 103.636 63.6177 102.995 62.9943 102.828L51.1427 99.6521C50.5193 99.4851 49.8786 99.855 49.7116 100.478C49.5445 101.102 49.9145 101.743 50.5378 101.91L62.3894 105.085C63.0128 105.252 63.6536 104.882 63.8206 104.259ZM178.797 152.526C179.356 152.849 179.547 153.564 179.224 154.123C178.902 154.682 178.187 154.873 177.628 154.55L167.002 148.416C166.443 148.093 166.252 147.378 166.574 146.819C166.897 146.26 167.612 146.069 168.171 146.392L178.797 152.526ZM69.4216 90.7281C69.7443 90.1692 69.5528 89.4545 68.9939 89.1319L58.368 82.997C57.8091 82.6743 57.0945 82.8658 56.7718 83.4247C56.4491 83.9836 56.6406 84.6983 57.1995 85.021L67.8253 91.1558C68.3842 91.4785 69.0989 91.287 69.4216 90.7281ZM167.99 167.116C168.446 167.573 168.446 168.313 167.99 168.769C167.534 169.225 166.794 169.225 166.338 168.769L157.662 160.093C157.205 159.637 157.205 158.897 157.662 158.44C158.118 157.984 158.858 157.984 159.314 158.44L167.99 167.116ZM78.3378 79.1166C78.7941 78.6603 78.7941 77.9204 78.3378 77.4641L69.6618 68.7881C69.2055 68.3317 68.4656 68.3317 68.0092 68.7881C67.5529 69.2444 67.5529 69.9843 68.0092 70.4407L76.6852 79.1166C77.1416 79.573 77.8814 79.573 78.3378 79.1166ZM153.775 178.407C154.098 178.966 153.906 179.681 153.347 180.004C152.788 180.326 152.074 180.135 151.751 179.576L145.616 168.95C145.294 168.391 145.485 167.676 146.044 167.354C146.603 167.031 147.318 167.223 147.64 167.781L153.775 178.407ZM89.9548 70.2067C90.5137 69.884 90.7052 69.1693 90.3825 68.6104L84.2477 57.9845C83.925 57.4256 83.2103 57.2341 82.6514 57.5568C82.0925 57.8795 81.901 58.5942 82.2237 59.1531L88.3586 69.7789C88.6812 70.3378 89.3959 70.5293 89.9548 70.2067ZM137.121 185.63C137.288 186.254 136.918 186.895 136.295 187.062C135.672 187.229 135.031 186.859 134.864 186.235L131.688 174.384C131.521 173.76 131.891 173.12 132.515 172.953C133.138 172.785 133.779 173.155 133.946 173.779L137.121 185.63ZM103.481 64.6006C104.104 64.4336 104.474 63.7928 104.307 63.1694L101.131 51.3178C100.964 50.6945 100.324 50.3245 99.7001 50.4916C99.0768 50.6586 98.7068 51.2993 98.8739 51.9227L102.049 63.7743C102.217 64.3977 102.857 64.7676 103.481 64.6006ZM119.166 188.305C119.166 188.951 118.643 189.474 117.997 189.474C117.352 189.474 116.829 188.951 116.829 188.305L116.829 176.036C116.829 175.39 117.352 174.867 117.997 174.867C118.643 174.867 119.166 175.39 119.166 176.036L119.166 188.305ZM117.997 62.6849C118.643 62.6849 119.166 62.1617 119.166 61.5163L119.166 49.2467C119.166 48.6013 118.643 48.0781 117.997 48.0781C117.352 48.0781 116.829 48.6013 116.829 49.2467L116.829 61.5163C116.829 62.1617 117.352 62.6849 117.997 62.6849ZM101.131 186.236C100.964 186.859 100.323 187.229 99.6994 187.062C99.076 186.895 98.7061 186.254 98.8731 185.631L102.049 173.779C102.216 173.156 102.857 172.786 103.48 172.953C104.103 173.12 104.473 173.761 104.306 174.384L101.131 186.236ZM132.516 64.5973C133.139 64.7643 133.78 64.3944 133.947 63.771L137.123 51.9194C137.29 51.296 136.92 50.6553 136.296 50.4882C135.673 50.3212 135.032 50.6911 134.865 51.3145L131.69 63.1661C131.522 63.7895 131.892 64.4303 132.516 64.5973ZM84.2464 179.571C83.9237 180.13 83.209 180.322 82.6501 179.999C82.0912 179.676 81.8997 178.962 82.2224 178.403L88.3572 167.777C88.6799 167.218 89.3946 167.027 89.9535 167.349C90.5124 167.672 90.7039 168.387 90.3812 168.945L84.2464 179.571ZM146.043 70.21C146.602 70.5327 147.316 70.3412 147.639 69.7823L153.774 59.1564C154.096 58.5975 153.905 57.8828 153.346 57.5602C152.787 57.2375 152.073 57.429 151.75 57.9879L145.615 68.6137C145.292 69.1726 145.484 69.8873 146.043 70.21ZM69.6603 168.765C69.2039 169.221 68.464 169.221 68.0077 168.765C67.5514 168.309 67.5514 167.569 68.0077 167.112L76.6837 158.436C77.14 157.98 77.8799 157.98 78.3362 158.436C78.7926 158.893 78.7926 159.633 78.3362 160.089L69.6603 168.765ZM157.66 79.1125C158.116 79.5689 158.856 79.5689 159.313 79.1125L167.989 70.4365C168.445 69.9802 168.445 69.2403 167.989 68.784C167.532 68.3276 166.792 68.3276 166.336 68.784L157.66 77.4599C157.204 77.9163 157.204 78.6562 157.66 79.1125ZM58.3675 154.546C57.8085 154.869 57.0939 154.677 56.7712 154.118C56.4485 153.559 56.64 152.845 57.1989 152.522L67.8248 146.387C68.3837 146.064 69.0983 146.256 69.421 146.815C69.7437 147.374 69.5522 148.088 68.9933 148.411L58.3675 154.546ZM166.574 90.7276C166.897 91.2865 167.611 91.478 168.17 91.1553L178.796 85.0205C179.355 84.6978 179.546 83.9831 179.224 83.4242C178.901 82.8653 178.186 82.6738 177.627 82.9965L167.002 89.1313C166.443 89.454 166.251 90.1687 166.574 90.7276ZM51.1424 137.902C50.519 138.069 49.8783 137.699 49.7112 137.076C49.5442 136.452 49.9141 135.812 50.5375 135.645L62.3891 132.469C63.0125 132.302 63.6532 132.672 63.8203 133.295C63.9873 133.919 63.6174 134.559 62.994 134.726L51.1424 137.902ZM172.176 104.259C172.343 104.883 172.984 105.253 173.607 105.086L185.459 101.91C186.082 101.743 186.452 101.102 186.285 100.479C186.118 99.8554 185.477 99.4855 184.854 99.6525L173.002 102.828C172.379 102.995 172.009 103.636 172.176 104.259ZM186.783 108.541C187.423 108.456 188.01 108.907 188.094 109.547C188.178 110.186 187.728 110.773 187.088 110.858L174.923 112.459C174.283 112.543 173.696 112.093 173.612 111.453C173.528 110.813 173.978 110.226 174.618 110.142L186.783 108.541ZM62.3869 126.101C62.3027 125.461 61.7157 125.011 61.0758 125.095L48.9111 126.697C48.2713 126.781 47.8209 127.368 47.9051 128.008C47.9893 128.648 48.5763 129.098 49.2162 129.014L61.3809 127.412C62.0207 127.328 62.4711 126.741 62.3869 126.101ZM187.086 126.696C187.725 126.781 188.176 127.368 188.092 128.007C188.007 128.647 187.42 129.098 186.781 129.014L174.616 127.412C173.976 127.328 173.526 126.741 173.61 126.101C173.694 125.461 174.281 125.011 174.921 125.095L187.086 126.696ZM62.3904 111.457C62.4747 110.817 62.0243 110.23 61.3844 110.146L49.2197 108.544C48.5799 108.46 47.9929 108.91 47.9086 109.55C47.8244 110.19 48.2748 110.777 48.9147 110.861L61.0794 112.463C61.7192 112.547 62.3062 112.097 62.3904 111.457ZM182.678 144.3C183.274 144.547 183.558 145.231 183.311 145.827C183.064 146.423 182.38 146.706 181.784 146.459L170.448 141.764C169.852 141.517 169.569 140.833 169.816 140.237C170.063 139.641 170.746 139.358 171.343 139.605L182.678 144.3ZM66.1759 97.3113C66.4228 96.7151 66.1397 96.0315 65.5435 95.7846L54.2077 91.0892C53.6115 90.8422 52.9279 91.1253 52.681 91.7216C52.434 92.3178 52.7171 93.0014 53.3134 93.2484L64.6491 97.9438C65.2453 98.1907 65.9289 97.9076 66.1759 97.3113ZM173.868 160.181C174.38 160.573 174.476 161.307 174.084 161.819C173.691 162.331 172.957 162.428 172.445 162.035L162.711 154.565C162.199 154.172 162.102 153.439 162.495 152.927C162.888 152.415 163.622 152.318 164.134 152.711L173.868 160.181ZM73.4976 84.6276C73.8905 84.1156 73.7939 83.382 73.2819 82.9891L63.5477 75.5198C63.0357 75.127 62.3022 75.2235 61.9093 75.7355C61.5164 76.2475 61.613 76.9811 62.125 77.374L71.8592 84.8433C72.3712 85.2362 73.1047 85.1396 73.4976 84.6276ZM161.252 173.219C161.644 173.731 161.548 174.464 161.036 174.857C160.524 175.25 159.79 175.153 159.397 174.641L151.928 164.907C151.535 164.395 151.632 163.662 152.144 163.269C152.656 162.876 153.389 162.973 153.782 163.485L161.252 173.219ZM83.8542 74.283C84.3662 73.8901 84.4628 73.1565 84.0699 72.6445L76.6006 62.9103C76.2077 62.3983 75.4742 62.3018 74.9621 62.6946C74.4501 63.0875 74.3536 63.8211 74.7465 64.3331L82.2158 74.0673C82.6086 74.5793 83.3422 74.6758 83.8542 74.283ZM145.684 182.562C145.931 183.159 145.648 183.842 145.051 184.089C144.455 184.336 143.771 184.053 143.524 183.457L138.829 172.121C138.582 171.525 138.865 170.841 139.461 170.594C140.058 170.347 140.741 170.63 140.988 171.227L145.684 182.562ZM96.5356 66.9602C97.1319 66.7132 97.415 66.0297 97.1681 65.4334L92.4726 54.0977C92.2257 53.5015 91.5421 53.2183 90.9459 53.4653C90.3496 53.7123 90.0665 54.3958 90.3135 54.9921L95.0089 66.3278C95.2558 66.924 95.9394 67.2072 96.5356 66.9602ZM128.232 187.562C128.316 188.201 127.866 188.788 127.226 188.873C126.586 188.957 125.999 188.506 125.915 187.867L124.314 175.702C124.229 175.062 124.68 174.475 125.32 174.391C125.959 174.307 126.546 174.757 126.631 175.397L128.232 187.562ZM110.677 63.1655C111.317 63.0813 111.768 62.4943 111.683 61.8545L110.082 49.6898C109.998 49.0499 109.411 48.5995 108.771 48.6837C108.131 48.768 107.681 49.355 107.765 49.9948L109.366 62.1595C109.451 62.7994 110.038 63.2498 110.677 63.1655ZM110.08 187.858C109.996 188.498 109.409 188.949 108.769 188.864C108.129 188.78 107.679 188.193 107.763 187.553L109.365 175.389C109.449 174.749 110.036 174.298 110.676 174.383C111.316 174.467 111.766 175.054 111.682 175.694L110.08 187.858ZM125.318 63.1652C125.958 63.2494 126.545 62.799 126.629 62.1592L128.231 49.9944C128.315 49.3546 127.864 48.7676 127.225 48.6834C126.585 48.5991 125.998 49.0495 125.914 49.6894L124.312 61.8541C124.228 62.4939 124.678 63.0809 125.318 63.1652ZM92.4687 183.461C92.2217 184.057 91.5381 184.34 90.9419 184.093C90.3456 183.846 90.0625 183.163 90.3095 182.566L95.0049 171.231C95.2519 170.634 95.9354 170.351 96.5317 170.598C97.1279 170.845 97.411 171.529 97.1641 172.125L92.4687 183.461ZM139.463 66.9525C140.06 67.1995 140.743 66.9164 140.99 66.3201L145.686 54.9844C145.933 54.3882 145.649 53.7046 145.053 53.4577C144.457 53.2107 143.773 53.4938 143.526 54.0901L138.831 65.4258C138.584 66.022 138.867 66.7056 139.463 66.9525ZM76.6 174.656C76.2072 175.168 75.4736 175.265 74.9616 174.872C74.4496 174.479 74.353 173.746 74.7459 173.234L82.2152 163.499C82.6081 162.987 83.3416 162.891 83.8536 163.284C84.3656 163.677 84.4622 164.41 84.0693 164.922L76.6 174.656ZM152.143 74.2743C152.655 74.6672 153.389 74.5706 153.782 74.0586L161.251 64.3244C161.644 63.8124 161.547 63.0789 161.035 62.686C160.523 62.2931 159.79 62.3897 159.397 62.9017L151.928 72.6359C151.535 73.1479 151.631 73.8814 152.143 74.2743ZM63.5501 162.028C63.0381 162.421 62.3046 162.325 61.9117 161.813C61.5188 161.3 61.6154 160.567 62.1274 160.174L71.8616 152.705C72.3736 152.312 73.1071 152.408 73.5 152.92C73.8929 153.432 73.7963 154.166 73.2843 154.559L63.5501 162.028ZM162.498 84.6328C162.89 85.1448 163.624 85.2414 164.136 84.8485L173.87 77.3792C174.382 76.9863 174.479 76.2528 174.086 75.7408C173.693 75.2288 172.96 75.1322 172.448 75.5251L162.713 82.9944C162.201 83.3873 162.105 84.1208 162.498 84.6328ZM52.6817 145.832C52.4347 145.236 52.7179 144.552 53.3141 144.305L64.6498 139.61C65.2461 139.363 65.9296 139.646 66.1766 140.242C66.4236 140.838 66.1404 141.522 65.5442 141.769L54.2085 146.464C53.6123 146.711 52.9287 146.428 52.6817 145.832ZM169.818 97.3162C170.065 97.9125 170.749 98.1956 171.345 97.9486L182.681 93.2532C183.277 93.0063 183.56 92.3227 183.313 91.7265C183.066 91.1302 182.383 90.8471 181.787 91.0941L170.451 95.7895C169.855 96.0364 169.571 96.72 169.818 97.3162Z" fill="url(#paint62_radial_1528_14437)"/>
<path d="M185.463 135.644L185.614 135.08L185.614 135.08L185.463 135.644ZM184.858 137.902L184.707 138.466L184.707 138.466L184.858 137.902ZM173.007 134.726L173.158 134.162L173.158 134.162L173.007 134.726ZM172.18 133.295L171.616 133.144L171.616 133.144L172.18 133.295ZM173.611 132.469L173.46 133.033L173.46 133.033L173.611 132.469ZM62.9943 102.828L63.1455 102.263L62.9943 102.828ZM63.8206 104.259L64.385 104.41L64.385 104.41L63.8206 104.259ZM51.1427 99.6521L51.2939 99.0878L51.1427 99.6521ZM49.7116 100.478L50.2759 100.63L50.2759 100.63L49.7116 100.478ZM50.5378 101.91L50.6891 101.345L50.5378 101.91ZM62.3894 105.085L62.5407 104.521L62.3894 105.085ZM178.797 152.526L179.089 152.02L179.089 152.02L178.797 152.526ZM177.628 154.55L177.336 155.056L177.336 155.056L177.628 154.55ZM167.002 148.416L166.71 148.922L166.71 148.922L167.002 148.416ZM166.574 146.819L166.069 146.527L166.069 146.527L166.574 146.819ZM168.171 146.392L167.879 146.898L167.879 146.898L168.171 146.392ZM68.9939 89.1319L69.286 88.6259L68.9939 89.1319ZM69.4216 90.7281L69.9276 91.0203L69.9276 91.0203L69.4216 90.7281ZM58.368 82.997L58.6602 82.491L58.368 82.997ZM56.7718 83.4247L56.2658 83.1326L56.2658 83.1326L56.7718 83.4247ZM57.1995 85.021L56.9073 85.527L56.9073 85.527L57.1995 85.021ZM67.8253 91.1558L68.1175 90.6498L67.8253 91.1558ZM167.99 168.769L168.403 169.182L168.403 169.182L167.99 168.769ZM167.99 167.116L167.577 167.53L167.99 167.116ZM166.338 168.769L165.924 169.182L165.924 169.182L166.338 168.769ZM157.662 158.44L158.075 158.854L158.075 158.854L157.662 158.44ZM159.314 158.44L158.901 158.854L158.901 158.854L159.314 158.44ZM78.3378 79.1166L77.9246 78.7035L77.9246 78.7035L78.3378 79.1166ZM69.6618 68.7881L70.0749 68.375L70.0749 68.3749L69.6618 68.7881ZM68.0092 68.7881L67.5961 68.3749L67.5961 68.375L68.0092 68.7881ZM68.0092 70.4407L68.4224 70.0275L68.4224 70.0275L68.0092 70.4407ZM153.347 180.004L153.64 180.51L153.64 180.51L153.347 180.004ZM153.775 178.407L154.281 178.115L153.775 178.407ZM151.751 179.576L151.245 179.868L151.751 179.576ZM145.616 168.95L146.122 168.658L145.616 168.95ZM146.044 167.354L146.336 167.86L146.336 167.86L146.044 167.354ZM147.64 167.781L148.146 167.489L147.64 167.781ZM90.3825 68.6104L89.8765 68.9025L89.8765 68.9025L90.3825 68.6104ZM84.2477 57.9845L84.7537 57.6924L84.7537 57.6924L84.2477 57.9845ZM82.6514 57.5568L82.3593 57.0508L82.3593 57.0508L82.6514 57.5568ZM82.2237 59.1531L82.7297 58.8609L82.7297 58.8609L82.2237 59.1531ZM88.3586 69.7789L87.8526 70.0711L87.8526 70.0711L88.3586 69.7789ZM136.295 187.062L136.446 187.626L136.446 187.626L136.295 187.062ZM137.121 185.63L137.686 185.479L137.121 185.63ZM134.864 186.235L135.428 186.084L134.864 186.235ZM131.688 174.384L131.124 174.535L131.124 174.535L131.688 174.384ZM132.515 172.953L132.666 173.517L132.666 173.517L132.515 172.953ZM133.946 173.779L134.51 173.628L133.946 173.779ZM104.307 63.1694L103.743 63.3207L103.743 63.3207L104.307 63.1694ZM101.131 51.3178L101.696 51.1666L101.696 51.1666L101.131 51.3178ZM99.7001 50.4916L99.5489 49.9272L99.5489 49.9272L99.7001 50.4916ZM98.8739 51.9227L99.4382 51.7715L99.4382 51.7715L98.8739 51.9227ZM102.049 63.7743L101.485 63.9255L101.485 63.9255L102.049 63.7743ZM99.6994 187.062L99.8506 186.498L99.8506 186.498L99.6994 187.062ZM101.131 186.236L101.695 186.387L101.695 186.387L101.131 186.236ZM98.8731 185.631L98.3087 185.48L98.8731 185.631ZM102.049 173.779L102.613 173.931L102.613 173.931L102.049 173.779ZM103.48 172.953L103.329 173.517L103.329 173.517L103.48 172.953ZM104.306 174.384L103.742 174.233L104.306 174.384ZM133.947 63.771L134.511 63.9222L134.511 63.9222L133.947 63.771ZM132.516 64.5973L132.667 64.0329L132.516 64.5973ZM137.123 51.9194L137.687 52.0706L137.687 52.0706L137.123 51.9194ZM136.296 50.4882L136.145 51.0526L136.145 51.0526L136.296 50.4882ZM134.865 51.3145L134.301 51.1633L134.301 51.1633L134.865 51.3145ZM131.69 63.1661L132.254 63.3173L132.254 63.3173L131.69 63.1661ZM82.6501 179.999L82.9423 179.493L82.9422 179.493L82.6501 179.999ZM84.2464 179.571L83.7404 179.279L84.2464 179.571ZM82.2224 178.403L81.7164 178.111L82.2224 178.403ZM88.3572 167.777L87.8513 167.485L87.8512 167.485L88.3572 167.777ZM89.9535 167.349L89.6614 167.855L89.6614 167.855L89.9535 167.349ZM90.3812 168.945L89.8752 168.653L89.8752 168.653L90.3812 168.945ZM147.639 69.7823L148.145 70.0744L148.145 70.0744L147.639 69.7823ZM146.043 70.21L146.335 69.704L146.335 69.704L146.043 70.21ZM153.774 59.1564L153.268 58.8643L153.268 58.8643L153.774 59.1564ZM153.346 57.5602L153.054 58.0662L153.054 58.0662L153.346 57.5602ZM151.75 57.9879L151.244 57.6957L151.244 57.6957L151.75 57.9879ZM145.615 68.6137L146.121 68.9059L146.121 68.9059L145.615 68.6137ZM69.6603 168.765L69.2471 168.352L69.6603 168.765ZM68.0077 167.112L67.5946 166.699L67.5945 166.699L68.0077 167.112ZM76.6837 158.436L77.0968 158.849L77.0968 158.849L76.6837 158.436ZM78.3362 160.089L77.9231 159.676L77.9231 159.676L78.3362 160.089ZM159.313 79.1125L158.899 78.6994L159.313 79.1125ZM167.989 70.4365L168.402 70.8497L167.989 70.4365ZM166.336 68.784L165.923 68.3708L165.923 68.3708L166.336 68.784ZM157.66 77.4599L158.073 77.8731L158.073 77.8731L157.66 77.4599ZM56.7712 154.118L56.2652 154.41L56.2652 154.41L56.7712 154.118ZM58.3675 154.546L58.6596 155.052L58.3675 154.546ZM57.1989 152.522L56.9068 152.016L56.9068 152.016L57.1989 152.522ZM67.8248 146.387L68.1169 146.893L68.1169 146.893L67.8248 146.387ZM69.421 146.815L68.915 147.107L68.915 147.107L69.421 146.815ZM68.9933 148.411L69.2854 148.917L69.2854 148.917L68.9933 148.411ZM168.17 91.1553L167.878 90.6493L167.878 90.6493L168.17 91.1553ZM166.574 90.7276L166.068 91.0197L166.068 91.0197L166.574 90.7276ZM178.796 85.0205L179.088 85.5265L179.088 85.5265L178.796 85.0205ZM179.224 83.4242L178.718 83.7163L178.718 83.7163L179.224 83.4242ZM177.627 82.9965L177.92 83.5025L177.92 83.5025L177.627 82.9965ZM167.002 89.1313L167.294 89.6373L167.294 89.6373L167.002 89.1313ZM49.7112 137.076L49.1469 137.227L49.1469 137.227L49.7112 137.076ZM51.1424 137.902L50.9912 137.338L50.9912 137.338L51.1424 137.902ZM50.5375 135.645L50.3863 135.08L50.3863 135.08L50.5375 135.645ZM62.3891 132.469L62.5403 133.033L62.3891 132.469ZM63.8203 133.295L63.2559 133.446L63.2559 133.446L63.8203 133.295ZM62.994 134.726L62.8428 134.162L62.8428 134.162L62.994 134.726ZM173.607 105.086L173.456 104.521L173.456 104.521L173.607 105.086ZM172.176 104.259L171.612 104.411L172.176 104.259ZM185.459 101.91L185.61 102.474L185.61 102.474L185.459 101.91ZM186.285 100.479L185.721 100.63L185.721 100.63L186.285 100.479ZM184.854 99.6525L185.005 100.217L185.005 100.217L184.854 99.6525ZM173.002 102.828L173.154 103.392L173.154 103.392L173.002 102.828ZM186.783 108.541L186.859 109.12L186.859 109.12L186.783 108.541ZM187.088 110.858L187.012 110.278L187.012 110.278L187.088 110.858ZM174.923 112.459L174.999 113.038L174.999 113.038L174.923 112.459ZM173.612 111.453L173.033 111.529L173.612 111.453ZM174.618 110.142L174.694 110.721L174.694 110.721L174.618 110.142ZM61.0758 125.095L60.9996 124.516L61.0758 125.095ZM48.9111 126.697L48.8349 126.117L48.9111 126.697ZM47.9051 128.008L48.4844 127.932L48.4844 127.932L47.9051 128.008ZM49.2162 129.014L49.2924 129.593L49.2162 129.014ZM61.3809 127.412L61.3046 126.833L61.3809 127.412ZM187.086 126.696L187.009 127.276L187.009 127.276L187.086 126.696ZM186.781 129.014L186.704 129.593L186.704 129.593L186.781 129.014ZM174.616 127.412L174.692 126.833L174.692 126.833L174.616 127.412ZM173.61 126.101L173.031 126.025L173.031 126.025L173.61 126.101ZM174.921 125.095L174.845 125.674L174.845 125.674L174.921 125.095ZM61.3844 110.146L61.4607 109.566L61.3844 110.146ZM49.2197 108.544L49.296 107.965L49.2197 108.544ZM47.9086 109.55L47.3294 109.474L47.3294 109.474L47.9086 109.55ZM48.9147 110.861L48.8384 111.44L48.9147 110.861ZM61.0794 112.463L61.0031 113.042L61.0794 112.463ZM183.311 145.827L182.771 145.603L182.771 145.603L183.311 145.827ZM182.678 144.3L182.455 144.84L182.455 144.84L182.678 144.3ZM181.784 146.459L182.007 145.92L181.784 146.459ZM170.448 141.764L170.225 142.304L170.448 141.764ZM169.816 140.237L169.276 140.014L169.276 140.014L169.816 140.237ZM171.343 139.605L171.566 139.065L171.343 139.605ZM65.5435 95.7846L65.767 95.2448L65.767 95.2448L65.5435 95.7846ZM54.2077 91.0892L53.9841 91.629L53.9842 91.629L54.2077 91.0892ZM52.681 91.7216L53.2208 91.9452L53.2208 91.9452L52.681 91.7216ZM53.3134 93.2484L53.0898 93.7881L53.3134 93.2484ZM64.6491 97.9438L64.4255 98.4836L64.6491 97.9438ZM174.084 161.819L173.62 161.463L173.62 161.463L174.084 161.819ZM173.868 160.181L174.224 159.717L174.224 159.717L173.868 160.181ZM172.445 162.035L172.801 161.571L172.801 161.571L172.445 162.035ZM162.711 154.565L162.355 155.029L162.355 155.029L162.711 154.565ZM162.495 152.927L162.032 152.571L162.495 152.927ZM164.134 152.711L164.489 152.248L164.489 152.248L164.134 152.711ZM73.2819 82.9891L73.6376 82.5256L73.2819 82.9891ZM63.5477 75.5198L63.9034 75.0563L63.5477 75.5198ZM62.125 77.374L62.4807 76.9104L62.125 77.374ZM71.8592 84.8433L71.5035 85.3068L71.5035 85.3068L71.8592 84.8433ZM161.036 174.857L161.392 175.321L161.036 174.857ZM161.252 173.219L160.788 173.574L160.788 173.574L161.252 173.219ZM159.397 174.641L158.934 174.997L158.934 174.997L159.397 174.641ZM151.928 164.907L151.465 165.263L151.928 164.907ZM152.144 163.269L152.499 163.732L152.144 163.269ZM153.782 163.485L153.319 163.84L153.319 163.84L153.782 163.485ZM84.0699 72.6445L83.6064 73.0002L83.6064 73.0002L84.0699 72.6445ZM83.8542 74.283L84.2099 74.7465L84.2099 74.7465L83.8542 74.283ZM76.6006 62.9103L76.137 63.266L76.137 63.266L76.6006 62.9103ZM74.9621 62.6946L74.6065 62.2311L74.6065 62.2311L74.9621 62.6946ZM74.7465 64.3331L75.21 63.9774L75.21 63.9774L74.7465 64.3331ZM82.2158 74.0673L82.6793 73.7116L82.6793 73.7116L82.2158 74.0673ZM145.051 184.089L144.828 183.549L144.828 183.549L145.051 184.089ZM145.684 182.562L145.144 182.786L145.684 182.562ZM143.524 183.457L142.985 183.68L143.524 183.457ZM138.829 172.121L139.369 171.897L139.369 171.897L138.829 172.121ZM139.461 170.594L139.238 170.054L139.461 170.594ZM140.988 171.227L141.528 171.003L141.528 171.003L140.988 171.227ZM97.1681 65.4334L97.7078 65.2098L97.1681 65.4334ZM96.5356 66.9602L96.7592 67.5L96.7592 67.5L96.5356 66.9602ZM92.4726 54.0977L91.9329 54.3213L91.9329 54.3213L92.4726 54.0977ZM90.9459 53.4653L90.7223 52.9255L90.7223 52.9255L90.9459 53.4653ZM90.3135 54.9921L89.7737 55.2157L89.7737 55.2157L90.3135 54.9921ZM95.0089 66.3278L95.5487 66.1042L95.0089 66.3278ZM127.226 188.873L127.302 189.452L127.302 189.452L127.226 188.873ZM128.232 187.562L127.653 187.638L128.232 187.562ZM125.915 187.867L126.494 187.79L125.915 187.867ZM124.314 175.702L123.734 175.778L124.314 175.702ZM126.631 175.397L126.051 175.473L126.631 175.397ZM111.683 61.8545L112.263 61.7782L112.263 61.7782L111.683 61.8545ZM110.082 49.6898L110.661 49.6135L110.661 49.6135L110.082 49.6898ZM108.771 48.6837L108.847 49.263L108.771 48.6837ZM107.765 49.9948L107.186 50.0711L107.186 50.0711L107.765 49.9948ZM109.366 62.1595L109.946 62.0833L109.946 62.0833L109.366 62.1595ZM108.769 188.864L108.845 188.285L108.845 188.285L108.769 188.864ZM110.08 187.858L109.501 187.782L110.08 187.858ZM107.763 187.553L107.184 187.477L107.763 187.553ZM109.365 175.389L109.944 175.465L109.365 175.389ZM111.682 175.694L112.261 175.77L111.682 175.694ZM126.629 62.1592L127.208 62.2354L127.208 62.2354L126.629 62.1592ZM125.318 63.1652L125.242 63.7444L125.318 63.1652ZM128.231 49.9944L128.81 50.0707L128.81 50.0707L128.231 49.9944ZM127.225 48.6834L127.148 49.2626L127.225 48.6834ZM125.914 49.6894L125.334 49.6131L125.334 49.6131L125.914 49.6894ZM124.312 61.8541L123.733 61.7778L123.733 61.7778L124.312 61.8541ZM90.9419 184.093L90.7183 184.633L90.7183 184.633L90.9419 184.093ZM92.4687 183.461L93.0085 183.684L92.4687 183.461ZM90.3095 182.566L90.8493 182.79L90.3095 182.566ZM95.0049 171.231L95.5447 171.454L95.0049 171.231ZM96.5317 170.598L96.7553 170.058L96.7552 170.058L96.5317 170.598ZM97.1641 172.125L96.6243 171.901L96.6243 171.901L97.1641 172.125ZM140.99 66.3201L140.45 66.0965L140.99 66.3201ZM145.686 54.9844L146.225 55.208V55.208L145.686 54.9844ZM145.053 53.4577L145.277 52.9179L145.053 53.4577ZM143.526 54.0901L144.066 54.3137L144.066 54.3137L143.526 54.0901ZM138.831 65.4258L138.291 65.2022L138.831 65.4258ZM74.9616 174.872L75.3173 174.408L74.9616 174.872ZM76.6 174.656L77.0636 175.012L76.6 174.656ZM74.7459 173.234L74.2824 172.878L74.7459 173.234ZM82.2152 163.499L82.6787 163.855L82.2152 163.499ZM83.8536 163.284L83.498 163.747L83.8536 163.284ZM84.0693 164.922L83.6058 164.566L84.0693 164.922ZM153.782 74.0586L154.245 74.4143L154.245 74.4143L153.782 74.0586ZM152.143 74.2743L152.499 73.8108L152.143 74.2743ZM161.251 64.3244L160.787 63.9687L161.251 64.3244ZM161.035 62.686L161.391 62.2224L161.391 62.2224L161.035 62.686ZM159.397 62.9017L158.933 62.546L159.397 62.9017ZM151.928 72.6359L152.391 72.9916L152.391 72.9916L151.928 72.6359ZM61.9117 161.813L61.4481 162.168L61.9117 161.813ZM63.5501 162.028L63.1944 161.565L63.5501 162.028ZM62.1274 160.174L62.4831 160.638L62.1274 160.174ZM71.8616 152.705L72.2173 153.168L71.8616 152.705ZM73.5 152.92L73.9635 152.565L73.5 152.92ZM73.2843 154.559L72.9286 154.095L72.9286 154.095L73.2843 154.559ZM164.136 84.8485L163.78 84.385L163.78 84.385L164.136 84.8485ZM162.498 84.6328L162.034 84.9885L162.498 84.6328ZM173.87 77.3792L174.226 77.8428L174.226 77.8427L173.87 77.3792ZM174.086 75.7408L174.549 75.3851L174.549 75.3851L174.086 75.7408ZM172.448 75.5251L172.803 75.9886L172.803 75.9886L172.448 75.5251ZM162.713 82.9944L162.358 82.5309L162.358 82.5309L162.713 82.9944ZM53.3141 144.305L53.0905 143.765L53.3141 144.305ZM52.6817 145.832L53.2215 145.608L53.2215 145.608L52.6817 145.832ZM64.6498 139.61L64.8734 140.149L64.8734 140.149L64.6498 139.61ZM66.1766 140.242L66.7164 140.018L66.7164 140.018L66.1766 140.242ZM65.5442 141.769L65.7678 142.309L65.7678 142.309L65.5442 141.769ZM54.2085 146.464L53.9849 145.924L54.2085 146.464ZM171.345 97.9486L171.122 97.4088L171.345 97.9486ZM182.681 93.2532L182.457 92.7134L182.681 93.2532ZM183.313 91.7265L182.774 91.9501L182.774 91.9501L183.313 91.7265ZM181.787 91.0941L181.563 90.5543L181.563 90.5543L181.787 91.0941ZM170.451 95.7895L170.674 96.3293L170.451 95.7895ZM187.527 118.191C187.849 118.191 188.111 118.453 188.111 118.775L189.28 118.775C189.28 117.807 188.495 117.022 187.527 117.022L187.527 118.191ZM175.257 118.191L187.527 118.191L187.527 117.022L175.257 117.022L175.257 118.191ZM174.673 118.775C174.673 118.453 174.934 118.191 175.257 118.191L175.257 117.022C174.289 117.022 173.504 117.807 173.504 118.775L174.673 118.775ZM175.257 119.36C174.934 119.36 174.673 119.098 174.673 118.775L173.504 118.775C173.504 119.743 174.289 120.528 175.257 120.528L175.257 119.36ZM187.527 119.36L175.257 119.36L175.257 120.528L187.527 120.528L187.527 119.36ZM188.111 118.775C188.111 119.098 187.849 119.36 187.527 119.36L187.527 120.528C188.495 120.528 189.28 119.743 189.28 118.775L188.111 118.775ZM60.7416 118.191C61.0643 118.191 61.3259 118.453 61.3259 118.775L62.4944 118.775C62.4944 117.807 61.7097 117.022 60.7416 117.022L60.7416 118.191ZM48.4719 118.191L60.7416 118.191L60.7416 117.022L48.4719 117.022L48.4719 118.191ZM47.8877 118.775C47.8877 118.453 48.1492 118.191 48.4719 118.191L48.4719 117.022C47.5039 117.022 46.7191 117.807 46.7191 118.775L47.8877 118.775ZM48.4719 119.36C48.1492 119.36 47.8877 119.098 47.8877 118.775L46.7191 118.775C46.7191 119.743 47.5039 120.528 48.4719 120.528L48.4719 119.36ZM60.7416 119.36L48.4719 119.36L48.4719 120.528L60.7416 120.528L60.7416 119.36ZM61.3259 118.775C61.3259 119.098 61.0643 119.36 60.7416 119.36L60.7416 120.528C61.7097 120.528 62.4944 119.743 62.4944 118.775L61.3259 118.775ZM186.854 137.227C187.104 136.291 186.549 135.33 185.614 135.08L185.312 136.209C185.624 136.292 185.809 136.612 185.725 136.924L186.854 137.227ZM184.707 138.466C185.642 138.717 186.603 138.162 186.854 137.227L185.725 136.924C185.641 137.236 185.321 137.421 185.009 137.337L184.707 138.466ZM172.855 135.29L184.707 138.466L185.009 137.337L173.158 134.162L172.855 135.29ZM171.616 133.144C171.365 134.079 171.92 135.04 172.855 135.29L173.158 134.162C172.846 134.078 172.661 133.758 172.745 133.446L171.616 133.144ZM173.763 131.904C172.828 131.654 171.866 132.209 171.616 133.144L172.745 133.446C172.828 133.134 173.149 132.949 173.46 133.033L173.763 131.904ZM185.614 135.08L173.763 131.904L173.46 133.033L185.312 136.209L185.614 135.08ZM62.8431 103.392C63.1548 103.476 63.3398 103.796 63.2562 104.108L64.385 104.41C64.6355 103.475 64.0806 102.514 63.1455 102.263L62.8431 103.392ZM50.9915 100.216L62.8431 103.392L63.1455 102.263L51.2939 99.0878L50.9915 100.216ZM50.2759 100.63C50.3594 100.318 50.6798 100.133 50.9915 100.216L51.2939 99.0878C50.3589 98.8372 49.3977 99.3921 49.1472 100.327L50.2759 100.63ZM50.6891 101.345C50.3774 101.262 50.1924 100.941 50.2759 100.63L49.1472 100.327C48.8966 101.262 49.4516 102.223 50.3866 102.474L50.6891 101.345ZM62.5407 104.521L50.6891 101.345L50.3866 102.474L62.2382 105.65L62.5407 104.521ZM63.2562 104.108C63.1727 104.419 62.8523 104.604 62.5407 104.521L62.2382 105.65C63.1733 105.9 64.1344 105.345 64.385 104.41L63.2562 104.108ZM179.73 154.415C180.214 153.576 179.927 152.504 179.089 152.02L178.504 153.032C178.784 153.194 178.88 153.551 178.718 153.831L179.73 154.415ZM177.336 155.056C178.174 155.54 179.246 155.253 179.73 154.415L178.718 153.831C178.557 154.11 178.2 154.206 177.92 154.044L177.336 155.056ZM166.71 148.922L177.336 155.056L177.92 154.044L167.294 147.91L166.71 148.922ZM166.069 146.527C165.584 147.365 165.872 148.437 166.71 148.922L167.294 147.91C167.015 147.748 166.919 147.391 167.08 147.111L166.069 146.527ZM168.463 145.886C167.625 145.402 166.553 145.689 166.069 146.527L167.08 147.111C167.242 146.832 167.599 146.736 167.879 146.898L168.463 145.886ZM179.089 152.02L168.463 145.886L167.879 146.898L178.504 153.032L179.089 152.02ZM68.7017 89.6379C68.9812 89.7992 69.0769 90.1565 68.9156 90.436L69.9276 91.0203C70.4116 90.1819 70.1244 89.1099 69.286 88.6259L68.7017 89.6379ZM58.0759 83.503L68.7017 89.6379L69.286 88.6259L58.6602 82.491L58.0759 83.503ZM57.2778 83.7169C57.4391 83.4374 57.7964 83.3417 58.0759 83.503L58.6602 82.491C57.8218 82.007 56.7498 82.2942 56.2658 83.1326L57.2778 83.7169ZM57.4916 84.515C57.2122 84.3537 57.1164 83.9963 57.2778 83.7169L56.2658 83.1326C55.7818 83.971 56.069 85.043 56.9073 85.527L57.4916 84.515ZM68.1175 90.6498L57.4916 84.515L56.9073 85.527L67.5332 91.6618L68.1175 90.6498ZM68.9156 90.436C68.7543 90.7154 68.3969 90.8112 68.1175 90.6498L67.5332 91.6618C68.3716 92.1459 69.4436 91.8586 69.9276 91.0203L68.9156 90.436ZM168.403 169.182C169.088 168.498 169.088 167.388 168.403 166.703L167.577 167.53C167.805 167.758 167.805 168.128 167.577 168.356L168.403 169.182ZM165.924 169.182C166.609 169.867 167.719 169.867 168.403 169.182L167.577 168.356C167.349 168.584 166.979 168.584 166.751 168.356L165.924 169.182ZM157.248 160.506L165.924 169.182L166.751 168.356L158.075 159.68L157.248 160.506ZM157.248 158.027C156.564 158.712 156.564 159.822 157.248 160.506L158.075 159.68C157.847 159.452 157.847 159.082 158.075 158.854L157.248 158.027ZM159.727 158.027C159.043 157.343 157.933 157.343 157.248 158.027L158.075 158.854C158.303 158.625 158.673 158.625 158.901 158.854L159.727 158.027ZM168.403 166.703L159.727 158.027L158.901 158.854L167.577 167.53L168.403 166.703ZM77.9246 77.8772C78.1528 78.1054 78.1528 78.4753 77.9246 78.7035L78.7509 79.5298C79.4354 78.8453 79.4354 77.7354 78.7509 77.0509L77.9246 77.8772ZM69.2487 69.2012L77.9246 77.8772L78.7509 77.0509L70.0749 68.375L69.2487 69.2012ZM68.4224 69.2012C68.6505 68.9731 69.0205 68.9731 69.2487 69.2012L70.0749 68.3749C69.3904 67.6904 68.2806 67.6904 67.5961 68.3749L68.4224 69.2012ZM68.4224 70.0275C68.1942 69.7993 68.1942 69.4294 68.4224 69.2012L67.5961 68.375C66.9116 69.0595 66.9116 70.1693 67.5961 70.8538L68.4224 70.0275ZM77.0983 78.7035L68.4224 70.0275L67.5961 70.8538L76.2721 79.5298L77.0983 78.7035ZM77.9246 78.7035C77.6965 78.9317 77.3265 78.9317 77.0983 78.7035L76.2721 79.5298C76.9566 80.2143 78.0664 80.2143 78.7509 79.5298L77.9246 78.7035ZM153.64 180.51C154.478 180.025 154.765 178.954 154.281 178.115L153.269 178.699C153.43 178.979 153.335 179.336 153.055 179.498L153.64 180.51ZM151.245 179.868C151.729 180.706 152.801 180.994 153.64 180.51L153.055 179.498C152.776 179.659 152.418 179.563 152.257 179.284L151.245 179.868ZM145.11 169.242L151.245 179.868L152.257 179.284L146.122 168.658L145.11 169.242ZM145.752 166.848C144.914 167.332 144.626 168.404 145.11 169.242L146.122 168.658C145.961 168.378 146.057 168.021 146.336 167.86L145.752 166.848ZM148.146 167.489C147.662 166.651 146.59 166.364 145.752 166.848L146.336 167.86C146.616 167.698 146.973 167.794 147.134 168.074L148.146 167.489ZM154.281 178.115L148.146 167.489L147.134 168.074L153.269 178.699L154.281 178.115ZM89.8765 68.9025C90.0379 69.182 89.9421 69.5393 89.6627 69.7007L90.2469 70.7126C91.0853 70.2286 91.3725 69.1566 90.8885 68.3183L89.8765 68.9025ZM83.7417 58.2767L89.8765 68.9025L90.8885 68.3183L84.7537 57.6924L83.7417 58.2767ZM82.9436 58.0628C83.223 57.9015 83.5804 57.9972 83.7417 58.2767L84.7537 57.6924C84.2697 56.854 83.1977 56.5668 82.3593 57.0508L82.9436 58.0628ZM82.7297 58.8609C82.5684 58.5815 82.6641 58.2242 82.9436 58.0628L82.3593 57.0508C81.5209 57.5349 81.2337 58.6069 81.7177 59.4452L82.7297 58.8609ZM88.8645 69.4868L82.7297 58.8609L81.7177 59.4452L87.8526 70.0711L88.8645 69.4868ZM89.6627 69.7007C89.3832 69.862 89.0259 69.7663 88.8645 69.4868L87.8526 70.0711C88.3366 70.9094 89.4086 71.1967 90.2469 70.7126L89.6627 69.7007ZM136.446 187.626C137.381 187.375 137.936 186.414 137.686 185.479L136.557 185.782C136.641 186.093 136.456 186.414 136.144 186.497L136.446 187.626ZM134.3 186.386C134.55 187.322 135.511 187.876 136.446 187.626L136.144 186.497C135.832 186.581 135.512 186.396 135.428 186.084L134.3 186.386ZM131.124 174.535L134.3 186.386L135.428 186.084L132.253 174.232L131.124 174.535ZM132.363 172.388C131.428 172.639 130.873 173.6 131.124 174.535L132.253 174.232C132.169 173.921 132.354 173.6 132.666 173.517L132.363 172.388ZM134.51 173.628C134.26 172.693 133.298 172.138 132.363 172.388L132.666 173.517C132.977 173.433 133.298 173.618 133.381 173.93L134.51 173.628ZM137.686 185.479L134.51 173.628L133.381 173.93L136.557 185.782L137.686 185.479ZM103.743 63.3207C103.826 63.6323 103.641 63.9527 103.329 64.0362L103.632 65.165C104.567 64.9144 105.122 63.9533 104.871 63.0182L103.743 63.3207ZM100.567 51.4691L103.743 63.3207L104.871 63.0182L101.696 51.1666L100.567 51.4691ZM99.8514 51.0559C100.163 50.9724 100.483 51.1574 100.567 51.4691L101.696 51.1666C101.445 50.2316 100.484 49.6766 99.5489 49.9272L99.8514 51.0559ZM99.4382 51.7715C99.3547 51.4598 99.5397 51.1394 99.8514 51.0559L99.5489 49.9272C98.6139 50.1777 98.0589 51.1389 98.3095 52.0739L99.4382 51.7715ZM102.614 63.6231L99.4382 51.7715L98.3095 52.0739L101.485 63.9255L102.614 63.6231ZM103.329 64.0362C103.018 64.1198 102.697 63.9348 102.614 63.6231L101.485 63.9255C101.736 64.8606 102.697 65.4155 103.632 65.165L103.329 64.0362ZM117.997 190.058C118.966 190.058 119.75 189.273 119.75 188.305L118.582 188.305C118.582 188.628 118.32 188.89 117.997 188.89L117.997 190.058ZM116.245 188.305C116.245 189.273 117.029 190.058 117.997 190.058L117.997 188.89C117.675 188.89 117.413 188.628 117.413 188.305L116.245 188.305ZM116.245 176.036L116.245 188.305L117.413 188.305L117.413 176.036L116.245 176.036ZM117.997 174.283C117.029 174.283 116.245 175.068 116.245 176.036L117.413 176.036C117.413 175.713 117.675 175.451 117.997 175.451L117.997 174.283ZM119.75 176.036C119.75 175.068 118.966 174.283 117.997 174.283L117.997 175.451C118.32 175.451 118.582 175.713 118.582 176.036L119.75 176.036ZM119.75 188.305L119.75 176.036L118.582 176.036L118.582 188.305L119.75 188.305ZM118.582 61.5163C118.582 61.839 118.32 62.1006 117.997 62.1006L117.997 63.2692C118.966 63.2692 119.75 62.4844 119.75 61.5163L118.582 61.5163ZM118.582 49.2467L118.582 61.5163L119.75 61.5163L119.75 49.2467L118.582 49.2467ZM117.997 48.6624C118.32 48.6624 118.582 48.924 118.582 49.2467L119.75 49.2467C119.75 48.2786 118.966 47.4939 117.997 47.4939L117.997 48.6624ZM117.413 49.2467C117.413 48.924 117.675 48.6624 117.997 48.6624L117.997 47.4939C117.029 47.4939 116.245 48.2786 116.245 49.2467L117.413 49.2467ZM117.413 61.5163L117.413 49.2467L116.245 49.2467L116.245 61.5163L117.413 61.5163ZM117.997 62.1006C117.675 62.1006 117.413 61.839 117.413 61.5163L116.245 61.5163C116.245 62.4844 117.029 63.2692 117.997 63.2692L117.997 62.1006ZM99.5482 187.626C100.483 187.877 101.444 187.322 101.695 186.387L100.566 186.085C100.483 186.396 100.162 186.581 99.8506 186.498L99.5482 187.626ZM98.3087 185.48C98.0582 186.415 98.6131 187.376 99.5482 187.626L99.8506 186.498C99.5389 186.414 99.354 186.094 99.4375 185.782L98.3087 185.48ZM101.484 173.628L98.3087 185.48L99.4375 185.782L102.613 173.931L101.484 173.628ZM103.631 172.389C102.696 172.138 101.735 172.693 101.484 173.628L102.613 173.931C102.697 173.619 103.017 173.434 103.329 173.517L103.631 172.389ZM104.871 174.535C105.121 173.6 104.566 172.639 103.631 172.389L103.329 173.517C103.64 173.601 103.825 173.921 103.742 174.233L104.871 174.535ZM101.695 186.387L104.871 174.535L103.742 174.233L100.566 186.085L101.695 186.387ZM133.383 63.6198C133.299 63.9315 132.979 64.1164 132.667 64.0329L132.365 65.1616C133.3 65.4122 134.261 64.8573 134.511 63.9222L133.383 63.6198ZM136.558 51.7682L133.383 63.6198L134.511 63.9222L137.687 52.0706L136.558 51.7682ZM136.145 51.0526C136.457 51.1361 136.642 51.4565 136.558 51.7682L137.687 52.0706C137.938 51.1356 137.383 50.1744 136.448 49.9239L136.145 51.0526ZM135.43 51.4657C135.513 51.1541 135.833 50.9691 136.145 51.0526L136.448 49.9239C135.512 49.6733 134.551 50.2282 134.301 51.1633L135.43 51.4657ZM132.254 63.3173L135.43 51.4657L134.301 51.1633L131.125 63.0149L132.254 63.3173ZM132.667 64.0329C132.355 63.9494 132.17 63.629 132.254 63.3173L131.125 63.0149C130.875 63.95 131.43 64.9111 132.365 65.1616L132.667 64.0329ZM82.358 180.505C83.1963 180.989 84.2684 180.702 84.7524 179.863L83.7404 179.279C83.579 179.559 83.2217 179.654 82.9423 179.493L82.358 180.505ZM81.7164 178.111C81.2324 178.949 81.5196 180.021 82.358 180.505L82.9422 179.493C82.6628 179.332 82.567 178.974 82.7284 178.695L81.7164 178.111ZM87.8512 167.485L81.7164 178.111L82.7284 178.695L88.8632 168.069L87.8512 167.485ZM90.2456 166.843C89.4073 166.359 88.3353 166.646 87.8513 167.485L88.8632 168.069C89.0246 167.79 89.3819 167.694 89.6614 167.855L90.2456 166.843ZM90.8872 169.238C91.3712 168.399 91.084 167.327 90.2456 166.843L89.6614 167.855C89.9408 168.017 90.0366 168.374 89.8752 168.653L90.8872 169.238ZM84.7524 179.863L90.8872 169.238L89.8752 168.653L83.7404 179.279L84.7524 179.863ZM147.133 69.4901C146.972 69.7696 146.614 69.8653 146.335 69.704L145.751 70.716C146.589 71.2 147.661 70.9128 148.145 70.0744L147.133 69.4901ZM153.268 58.8643L147.133 69.4901L148.145 70.0744L154.28 59.4486L153.268 58.8643ZM153.054 58.0662C153.333 58.2275 153.429 58.5848 153.268 58.8643L154.28 59.4486C154.764 58.6102 154.477 57.5382 153.638 57.0542L153.054 58.0662ZM152.256 58.28C152.417 58.0006 152.774 57.9048 153.054 58.0662L153.638 57.0542C152.8 56.5701 151.728 56.8574 151.244 57.6957L152.256 58.28ZM146.121 68.9059L152.256 58.28L151.244 57.6957L145.109 68.3216L146.121 68.9059ZM146.335 69.704C146.055 69.5427 145.96 69.1853 146.121 68.9059L145.109 68.3216C144.625 69.16 144.912 70.232 145.751 70.716L146.335 69.704ZM67.5946 169.178C68.2791 169.862 69.3889 169.862 70.0734 169.178L69.2471 168.352C69.019 168.58 68.649 168.58 68.4208 168.352L67.5946 169.178ZM67.5945 166.699C66.91 167.384 66.91 168.493 67.5946 169.178L68.4208 168.352C68.1927 168.124 68.1927 167.754 68.4208 167.525L67.5945 166.699ZM76.2705 158.023L67.5946 166.699L68.4208 167.525L77.0968 158.849L76.2705 158.023ZM78.7494 158.023C78.0649 157.339 76.955 157.339 76.2705 158.023L77.0968 158.849C77.325 158.621 77.6949 158.621 77.9231 158.849L78.7494 158.023ZM78.7494 160.502C79.4339 159.818 79.4339 158.708 78.7494 158.023L77.9231 158.849C78.1513 159.078 78.1513 159.448 77.9231 159.676L78.7494 160.502ZM70.0734 169.178L78.7494 160.502L77.9231 159.676L69.2471 168.352L70.0734 169.178ZM158.899 78.6994C158.671 78.9275 158.301 78.9275 158.073 78.6994L157.247 79.5256C157.931 80.2102 159.041 80.2102 159.726 79.5256L158.899 78.6994ZM167.575 70.0234L158.899 78.6994L159.726 79.5256L168.402 70.8497L167.575 70.0234ZM167.575 69.1971C167.804 69.4253 167.804 69.7952 167.575 70.0234L168.402 70.8497C169.086 70.1652 169.086 69.0553 168.402 68.3708L167.575 69.1971ZM166.749 69.1971C166.977 68.9689 167.347 68.9689 167.575 69.1971L168.402 68.3708C167.717 67.6863 166.607 67.6863 165.923 68.3708L166.749 69.1971ZM158.073 77.8731L166.749 69.1971L165.923 68.3708L157.247 77.0468L158.073 77.8731ZM158.073 78.6994C157.845 78.4712 157.845 78.1013 158.073 77.8731L157.247 77.0468C156.562 77.7313 156.562 78.8411 157.247 79.5256L158.073 78.6994ZM56.2652 154.41C56.7492 155.249 57.8212 155.536 58.6596 155.052L58.0753 154.04C57.7959 154.201 57.4385 154.106 57.2772 153.826L56.2652 154.41ZM56.9068 152.016C56.0684 152.5 55.7812 153.572 56.2652 154.41L57.2772 153.826C57.1158 153.547 57.2116 153.189 57.4911 153.028L56.9068 152.016ZM67.5326 145.881L56.9068 152.016L57.491 153.028L68.1169 146.893L67.5326 145.881ZM69.927 146.523C69.443 145.684 68.371 145.397 67.5326 145.881L68.1169 146.893C68.3964 146.732 68.7537 146.828 68.915 147.107L69.927 146.523ZM69.2854 148.917C70.1238 148.433 70.411 147.361 69.927 146.523L68.915 147.107C69.0764 147.386 68.9806 147.744 68.7012 147.905L69.2854 148.917ZM58.6596 155.052L69.2854 148.917L68.7012 147.905L58.0753 154.04L58.6596 155.052ZM167.878 90.6493C167.599 90.8107 167.241 90.7149 167.08 90.4355L166.068 91.0197C166.552 91.8581 167.624 92.1453 168.462 91.6613L167.878 90.6493ZM178.504 84.5145L167.878 90.6493L168.462 91.6613L179.088 85.5265L178.504 84.5145ZM178.718 83.7163C178.879 83.9958 178.783 84.3531 178.504 84.5145L179.088 85.5265C179.927 85.0424 180.214 83.9704 179.73 83.1321L178.718 83.7163ZM177.92 83.5025C178.199 83.3411 178.556 83.4369 178.718 83.7163L179.73 83.1321C179.246 82.2937 178.174 82.0065 177.335 82.4905L177.92 83.5025ZM167.294 89.6373L177.92 83.5025L177.335 82.4905L166.71 88.6253L167.294 89.6373ZM167.08 90.4355C166.919 90.156 167.014 89.7987 167.294 89.6373L166.71 88.6253C165.871 89.1094 165.584 90.1814 166.068 91.0197L167.08 90.4355ZM49.1469 137.227C49.3974 138.162 50.3585 138.717 51.2936 138.466L50.9912 137.338C50.6795 137.421 50.3591 137.236 50.2756 136.924L49.1469 137.227ZM50.3863 135.08C49.4512 135.331 48.8963 136.292 49.1469 137.227L50.2756 136.924C50.1921 136.613 50.377 136.292 50.6887 136.209L50.3863 135.08ZM62.2379 131.905L50.3863 135.08L50.6887 136.209L62.5403 133.033L62.2379 131.905ZM64.3846 133.144C64.1341 132.209 63.173 131.654 62.2379 131.905L62.5403 133.033C62.852 132.95 63.1724 133.135 63.2559 133.446L64.3846 133.144ZM63.1452 135.291C64.0803 135.04 64.6352 134.079 64.3846 133.144L63.2559 133.446C63.3394 133.758 63.1545 134.078 62.8428 134.162L63.1452 135.291ZM51.2936 138.466L63.1452 135.291L62.8428 134.162L50.9912 137.338L51.2936 138.466ZM173.456 104.521C173.144 104.605 172.824 104.42 172.74 104.108L171.612 104.411C171.862 105.346 172.823 105.9 173.758 105.65L173.456 104.521ZM185.308 101.346L173.456 104.521L173.758 105.65L185.61 102.474L185.308 101.346ZM185.721 100.63C185.804 100.942 185.619 101.262 185.308 101.346L185.61 102.474C186.545 102.224 187.1 101.263 186.849 100.328L185.721 100.63ZM185.005 100.217C185.317 100.133 185.637 100.318 185.721 100.63L186.849 100.328C186.599 99.3925 185.638 98.8376 184.703 99.0881L185.005 100.217ZM173.154 103.392L185.005 100.217L184.703 99.0881L172.851 102.264L173.154 103.392ZM172.74 104.108C172.657 103.796 172.842 103.476 173.154 103.392L172.851 102.264C171.916 102.514 171.361 103.475 171.612 104.411L172.74 104.108ZM188.673 109.47C188.547 108.511 187.666 107.835 186.707 107.961L186.859 109.12C187.179 109.078 187.473 109.303 187.515 109.623L188.673 109.47ZM187.164 111.437C188.124 111.311 188.8 110.43 188.673 109.47L187.515 109.623C187.557 109.943 187.332 110.236 187.012 110.278L187.164 111.437ZM174.999 113.038L187.164 111.437L187.012 110.278L174.847 111.88L174.999 113.038ZM173.033 111.529C173.159 112.489 174.04 113.165 174.999 113.038L174.847 111.88C174.527 111.922 174.234 111.697 174.191 111.377L173.033 111.529ZM174.542 109.563C173.582 109.689 172.907 110.57 173.033 111.529L174.191 111.377C174.149 111.057 174.374 110.763 174.694 110.721L174.542 109.563ZM186.707 107.961L174.542 109.563L174.694 110.721L186.859 109.12L186.707 107.961ZM61.1521 125.674C61.472 125.632 61.7655 125.858 61.8076 126.177L62.9662 126.025C62.8398 125.065 61.9593 124.39 60.9996 124.516L61.1521 125.674ZM48.9874 127.276L61.1521 125.674L60.9996 124.516L48.8349 126.117L48.9874 127.276ZM48.4844 127.932C48.4423 127.612 48.6674 127.318 48.9874 127.276L48.8349 126.117C47.8751 126.244 47.1995 127.124 47.3258 128.084L48.4844 127.932ZM49.1399 128.435C48.82 128.477 48.5265 128.251 48.4844 127.932L47.3258 128.084C47.4522 129.044 48.3327 129.719 49.2924 129.593L49.1399 128.435ZM61.3046 126.833L49.1399 128.435L49.2924 129.593L61.4571 127.992L61.3046 126.833ZM61.8076 126.177C61.8497 126.497 61.6245 126.791 61.3046 126.833L61.4571 127.992C62.4169 127.865 63.0925 126.985 62.9662 126.025L61.8076 126.177ZM188.671 128.084C188.797 127.124 188.122 126.243 187.162 126.117L187.009 127.276C187.329 127.318 187.554 127.611 187.512 127.931L188.671 128.084ZM186.704 129.593C187.664 129.719 188.545 129.044 188.671 128.084L187.512 127.931C187.47 128.251 187.177 128.476 186.857 128.434L186.704 129.593ZM174.54 127.991L186.704 129.593L186.857 128.434L174.692 126.833L174.54 127.991ZM173.031 126.025C172.904 126.984 173.58 127.865 174.54 127.991L174.692 126.833C174.372 126.791 174.147 126.497 174.189 126.177L173.031 126.025ZM174.997 124.516C174.037 124.389 173.157 125.065 173.031 126.025L174.189 126.177C174.231 125.857 174.525 125.632 174.845 125.674L174.997 124.516ZM187.162 126.117L174.997 124.516L174.845 125.674L187.009 127.276L187.162 126.117ZM61.3082 110.725C61.6281 110.767 61.8533 111.061 61.8112 111.38L62.9697 111.533C63.0961 110.573 62.4205 109.693 61.4607 109.566L61.3082 110.725ZM49.1434 109.123L61.3082 110.725L61.4607 109.566L49.296 107.965L49.1434 109.123ZM48.4879 109.626C48.53 109.306 48.8235 109.081 49.1434 109.123L49.296 107.965C48.3362 107.838 47.4557 108.514 47.3294 109.474L48.4879 109.626ZM48.9909 110.282C48.671 110.24 48.4458 109.946 48.4879 109.626L47.3294 109.474C47.203 110.434 47.8786 111.314 48.8384 111.44L48.9909 110.282ZM61.1556 111.883L48.9909 110.282L48.8384 111.44L61.0031 113.042L61.1556 111.883ZM61.8112 111.38C61.769 111.7 61.4756 111.926 61.1556 111.883L61.0031 113.042C61.9629 113.168 62.8434 112.493 62.9697 111.533L61.8112 111.38ZM183.85 146.051C184.221 145.156 183.796 144.131 182.902 143.76L182.455 144.84C182.753 144.963 182.894 145.305 182.771 145.603L183.85 146.051ZM181.56 146.999C182.455 147.37 183.48 146.945 183.85 146.051L182.771 145.603C182.647 145.902 182.306 146.043 182.007 145.92L181.56 146.999ZM170.225 142.304L181.56 146.999L182.007 145.92L170.672 141.224L170.225 142.304ZM169.276 140.014C168.905 140.908 169.33 141.933 170.225 142.304L170.672 141.224C170.374 141.101 170.232 140.759 170.356 140.461L169.276 140.014ZM171.566 139.065C170.672 138.695 169.646 139.119 169.276 140.014L170.356 140.461C170.479 140.163 170.821 140.021 171.119 140.145L171.566 139.065ZM182.902 143.76L171.566 139.065L171.119 140.145L182.455 144.84L182.902 143.76ZM65.3199 96.3244C65.618 96.4479 65.7595 96.7896 65.6361 97.0878L66.7157 97.5349C67.0861 96.6406 66.6614 95.6152 65.767 95.2448L65.3199 96.3244ZM53.9842 91.629L65.3199 96.3244L65.767 95.2448L54.4313 90.5494L53.9842 91.629ZM53.2208 91.9452C53.3443 91.6471 53.686 91.5055 53.9841 91.629L54.4313 90.5494C53.537 90.1789 52.5116 90.6036 52.1412 91.498L53.2208 91.9452ZM53.537 92.7086C53.2389 92.5851 53.0973 92.2433 53.2208 91.9452L52.1412 91.498C51.7707 92.3924 52.1954 93.4177 53.0898 93.7881L53.537 92.7086ZM64.8727 97.404L53.537 92.7086L53.0898 93.7881L64.4255 98.4836L64.8727 97.404ZM65.6361 97.0878C65.5126 97.3859 65.1708 97.5274 64.8727 97.404L64.4255 98.4836C65.3199 98.854 66.3452 98.4293 66.7157 97.5349L65.6361 97.0878ZM174.547 162.175C175.136 161.407 174.992 160.306 174.224 159.717L173.512 160.644C173.768 160.841 173.816 161.207 173.62 161.463L174.547 162.175ZM172.089 162.498C172.857 163.088 173.958 162.943 174.547 162.175L173.62 161.463C173.424 161.719 173.057 161.768 172.801 161.571L172.089 162.498ZM162.355 155.029L172.089 162.498L172.801 161.571L163.067 154.102L162.355 155.029ZM162.032 152.571C161.442 153.339 161.587 154.44 162.355 155.029L163.067 154.102C162.811 153.905 162.762 153.539 162.959 153.283L162.032 152.571ZM164.489 152.248C163.721 151.658 162.621 151.803 162.032 152.571L162.959 153.283C163.155 153.027 163.522 152.978 163.778 153.175L164.489 152.248ZM174.224 159.717L164.489 152.248L163.778 153.175L173.512 160.644L174.224 159.717ZM72.9262 83.4527C73.1822 83.6491 73.2305 84.0159 73.0341 84.2719L73.9611 84.9833C74.5505 84.2153 74.4056 83.1149 73.6376 82.5256L72.9262 83.4527ZM63.192 75.9834L72.9262 83.4527L73.6376 82.5256L63.9034 75.0563L63.192 75.9834ZM62.3728 76.0912C62.5693 75.8352 62.936 75.7869 63.192 75.9834L63.9034 75.0563C63.1354 74.467 62.0351 74.6119 61.4458 75.3799L62.3728 76.0912ZM62.4807 76.9104C62.2247 76.714 62.1764 76.3472 62.3728 76.0912L61.4458 75.3799C60.8565 76.1479 61.0013 77.2482 61.7693 77.8375L62.4807 76.9104ZM72.2149 84.3797L62.4807 76.9104L61.7693 77.8375L71.5035 85.3068L72.2149 84.3797ZM73.0341 84.2719C72.8376 84.5279 72.4709 84.5762 72.2149 84.3797L71.5035 85.3068C72.2715 85.8961 73.3718 85.7513 73.9611 84.9833L73.0341 84.2719ZM161.392 175.321C162.16 174.731 162.304 173.631 161.715 172.863L160.788 173.574C160.984 173.83 160.936 174.197 160.68 174.394L161.392 175.321ZM158.934 174.997C159.523 175.765 160.623 175.91 161.392 175.321L160.68 174.394C160.424 174.59 160.057 174.542 159.861 174.286L158.934 174.997ZM151.465 165.263L158.934 174.997L159.861 174.286L152.392 164.552L151.465 165.263ZM151.788 162.805C151.02 163.395 150.875 164.495 151.465 165.263L152.392 164.552C152.195 164.296 152.243 163.929 152.499 163.732L151.788 162.805ZM154.246 163.129C153.656 162.361 152.556 162.216 151.788 162.805L152.499 163.732C152.755 163.536 153.122 163.584 153.319 163.84L154.246 163.129ZM161.715 172.863L154.246 163.129L153.319 163.84L160.788 173.574L161.715 172.863ZM83.6064 73.0002C83.8028 73.2562 83.7545 73.623 83.4985 73.8194L84.2099 74.7465C84.9779 74.1572 85.1227 73.0569 84.5334 72.2889L83.6064 73.0002ZM76.137 63.266L83.6064 73.0002L84.5334 72.2889L77.0641 62.5547L76.137 63.266ZM75.3178 63.1582C75.5738 62.9617 75.9406 63.01 76.137 63.266L77.0641 62.5547C76.4748 61.7867 75.3745 61.6418 74.6065 62.2311L75.3178 63.1582ZM75.21 63.9774C75.0135 63.7214 75.0618 63.3546 75.3178 63.1582L74.6065 62.2311C73.8385 62.8204 73.6936 63.9207 74.2829 64.6888L75.21 63.9774ZM82.6793 73.7116L75.21 63.9774L74.2829 64.6887L81.7522 74.4229L82.6793 73.7116ZM83.4985 73.8194C83.2425 74.0159 82.8757 73.9676 82.6793 73.7116L81.7522 74.4229C82.3415 75.191 83.4419 75.3358 84.2099 74.7465L83.4985 73.8194ZM145.275 184.629C146.169 184.258 146.594 183.233 146.223 182.339L145.144 182.786C145.267 183.084 145.126 183.426 144.828 183.549L145.275 184.629ZM142.985 183.68C143.355 184.575 144.38 184.999 145.275 184.629L144.828 183.549C144.53 183.673 144.188 183.531 144.064 183.233L142.985 183.68ZM138.289 172.345L142.985 183.68L144.064 183.233L139.369 171.897L138.289 172.345ZM139.238 170.054C138.344 170.425 137.919 171.45 138.289 172.345L139.369 171.897C139.245 171.599 139.387 171.257 139.685 171.134L139.238 170.054ZM141.528 171.003C141.158 170.109 140.132 169.684 139.238 170.054L139.685 171.134C139.983 171.011 140.325 171.152 140.448 171.45L141.528 171.003ZM146.223 182.339L141.528 171.003L140.448 171.45L145.144 182.786L146.223 182.339ZM96.6283 65.657C96.7517 65.9551 96.6102 66.2969 96.312 66.4204L96.7592 67.5C97.6536 67.1295 98.0783 66.1042 97.7078 65.2098L96.6283 65.657ZM91.9329 54.3213L96.6283 65.657L97.7078 65.2098L93.0124 53.8741L91.9329 54.3213ZM91.1695 54.0051C91.4676 53.8816 91.8094 54.0232 91.9329 54.3213L93.0124 53.8741C92.642 52.9798 91.6167 52.555 90.7223 52.9255L91.1695 54.0051ZM90.8533 54.7685C90.7298 54.4704 90.8714 54.1286 91.1695 54.0051L90.7223 52.9255C89.8279 53.296 89.4032 54.3213 89.7737 55.2157L90.8533 54.7685ZM95.5487 66.1042L90.8533 54.7685L89.7737 55.2157L94.4691 66.5514L95.5487 66.1042ZM96.3121 66.4204C96.0139 66.5439 95.6722 66.4023 95.5487 66.1042L94.4691 66.5514C94.8395 67.4457 95.8649 67.8704 96.7592 67.5L96.3121 66.4204ZM127.302 189.452C128.262 189.325 128.938 188.445 128.812 187.485L127.653 187.638C127.695 187.958 127.47 188.251 127.15 188.293L127.302 189.452ZM125.336 187.943C125.462 188.903 126.343 189.578 127.302 189.452L127.15 188.293C126.83 188.335 126.537 188.11 126.494 187.79L125.336 187.943ZM123.734 175.778L125.336 187.943L126.494 187.79L124.893 175.626L123.734 175.778ZM125.243 173.812C124.284 173.938 123.608 174.818 123.734 175.778L124.893 175.626C124.851 175.306 125.076 175.012 125.396 174.97L125.243 173.812ZM127.21 175.321C127.084 174.361 126.203 173.685 125.243 173.812L125.396 174.97C125.716 174.928 126.009 175.153 126.051 175.473L127.21 175.321ZM128.812 187.485L127.21 175.321L126.051 175.473L127.653 187.638L128.812 187.485ZM111.104 61.9307C111.146 62.2506 110.921 62.5441 110.601 62.5863L110.754 63.7448C111.713 63.6184 112.389 62.738 112.263 61.7782L111.104 61.9307ZM109.503 49.766L111.104 61.9307L112.263 61.7782L110.661 49.6135L109.503 49.766ZM108.847 49.263C109.167 49.2209 109.461 49.4461 109.503 49.766L110.661 49.6135C110.535 48.6537 109.654 47.9781 108.695 48.1045L108.847 49.263ZM108.344 49.9185C108.302 49.5986 108.527 49.3051 108.847 49.263L108.695 48.1045C107.735 48.2308 107.059 49.1113 107.186 50.0711L108.344 49.9185ZM109.946 62.0833L108.344 49.9185L107.186 50.0711L108.787 62.2358L109.946 62.0833ZM110.601 62.5863C110.281 62.6284 109.988 62.4032 109.946 62.0833L108.787 62.2358C108.913 63.1955 109.794 63.8712 110.754 63.7448L110.601 62.5863ZM108.693 189.444C109.653 189.57 110.533 188.894 110.66 187.935L109.501 187.782C109.459 188.102 109.165 188.327 108.845 188.285L108.693 189.444ZM107.184 187.477C107.058 188.437 107.733 189.317 108.693 189.444L108.845 188.285C108.526 188.243 108.3 187.95 108.342 187.63L107.184 187.477ZM108.785 175.312L107.184 187.477L108.342 187.63L109.944 175.465L108.785 175.312ZM110.752 173.803C109.792 173.677 108.912 174.353 108.785 175.312L109.944 175.465C109.986 175.145 110.28 174.92 110.599 174.962L110.752 173.803ZM112.261 175.77C112.387 174.81 111.712 173.93 110.752 173.803L110.599 174.962C110.919 175.004 111.145 175.297 111.103 175.617L112.261 175.77ZM110.66 187.935L112.261 175.77L111.103 175.617L109.501 187.782L110.66 187.935ZM126.05 62.0829C126.008 62.4028 125.714 62.628 125.394 62.5859L125.242 63.7444C126.202 63.8708 127.082 63.1952 127.208 62.2354L126.05 62.0829ZM127.651 49.9182L126.05 62.0829L127.208 62.2354L128.81 50.0707L127.651 49.9182ZM127.148 49.2626C127.468 49.3048 127.693 49.5983 127.651 49.9182L128.81 50.0707C128.936 49.1109 128.261 48.2305 127.301 48.1041L127.148 49.2626ZM126.493 49.7657C126.535 49.4457 126.828 49.2205 127.148 49.2626L127.301 48.1041C126.341 47.9777 125.461 48.6534 125.334 49.6131L126.493 49.7657ZM124.891 61.9304L126.493 49.7657L125.334 49.6131L123.733 61.7778L124.891 61.9304ZM125.394 62.5859C125.074 62.5438 124.849 62.2503 124.891 61.9304L123.733 61.7778C123.606 62.7376 124.282 63.6181 125.242 63.7444L125.394 62.5859ZM90.7183 184.633C91.6127 185.003 92.638 184.579 93.0085 183.684L91.9289 183.237C91.8054 183.535 91.4636 183.677 91.1655 183.553L90.7183 184.633ZM89.7697 182.343C89.3992 183.237 89.8239 184.263 90.7183 184.633L91.1655 183.553C90.8674 183.43 90.7258 183.088 90.8493 182.79L89.7697 182.343ZM94.4651 171.007L89.7697 182.343L90.8493 182.79L95.5447 171.454L94.4651 171.007ZM96.7552 170.058C95.8609 169.688 94.8355 170.113 94.4651 171.007L95.5447 171.454C95.6682 171.156 96.0099 171.015 96.3081 171.138L96.7552 170.058ZM97.7039 172.349C98.0743 171.454 97.6496 170.429 96.7553 170.058L96.3081 171.138C96.6062 171.262 96.7478 171.603 96.6243 171.901L97.7039 172.349ZM93.0085 183.684L97.7039 172.349L96.6243 171.901L91.9289 183.237L93.0085 183.684ZM140.45 66.0965C140.327 66.3947 139.985 66.5362 139.687 66.4128L139.24 67.4923C140.134 67.8628 141.159 67.4381 141.53 66.5437L140.45 66.0965ZM145.146 54.7608L140.45 66.0965L141.53 66.5437L146.225 55.208L145.146 54.7608ZM144.83 53.9975C145.128 54.1209 145.269 54.4627 145.146 54.7608L146.225 55.208C146.596 54.3137 146.171 53.2883 145.277 52.9179L144.83 53.9975ZM144.066 54.3137C144.19 54.0155 144.531 53.874 144.83 53.9975L145.277 52.9179C144.382 52.5474 143.357 52.9721 142.987 53.8665L144.066 54.3137ZM139.371 65.6494L144.066 54.3137L142.987 53.8665L138.291 65.2022L139.371 65.6494ZM139.687 66.4128C139.389 66.2893 139.247 65.9475 139.371 65.6494L138.291 65.2022C137.921 66.0965 138.345 67.1219 139.24 67.4923L139.687 66.4128ZM74.6059 175.335C75.3739 175.925 76.4743 175.78 77.0636 175.012L76.1365 174.301C75.9401 174.557 75.5733 174.605 75.3173 174.408L74.6059 175.335ZM74.2824 172.878C73.6931 173.646 73.8379 174.746 74.6059 175.335L75.3173 174.408C75.0613 174.212 75.013 173.845 75.2094 173.589L74.2824 172.878ZM81.7517 163.144L74.2824 172.878L75.2094 173.589L82.6787 163.855L81.7517 163.144ZM84.2093 162.82C83.4413 162.231 82.341 162.376 81.7517 163.144L82.6787 163.855C82.8752 163.599 83.242 163.551 83.498 163.747L84.2093 162.82ZM84.5329 165.278C85.1222 164.51 84.9773 163.409 84.2093 162.82L83.498 163.747C83.754 163.944 83.8022 164.31 83.6058 164.566L84.5329 165.278ZM77.0636 175.012L84.5329 165.278L83.6058 164.566L76.1365 174.301L77.0636 175.012ZM153.318 73.7029C153.122 73.9589 152.755 74.0072 152.499 73.8108L151.788 74.7378C152.556 75.3271 153.656 75.1823 154.245 74.4143L153.318 73.7029ZM160.787 63.9687L153.318 73.7029L154.245 74.4143L161.715 64.6801L160.787 63.9687ZM160.68 63.1495C160.936 63.346 160.984 63.7127 160.787 63.9687L161.715 64.6801C162.304 63.9121 162.159 62.8118 161.391 62.2224L160.68 63.1495ZM159.86 63.2574C160.057 63.0014 160.424 62.9531 160.68 63.1495L161.391 62.2224C160.623 61.6331 159.523 61.778 158.933 62.546L159.86 63.2574ZM152.391 72.9916L159.86 63.2574L158.933 62.546L151.464 72.2802L152.391 72.9916ZM152.499 73.8108C152.243 73.6143 152.195 73.2476 152.391 72.9916L151.464 72.2802C150.875 73.0482 151.02 74.1485 151.788 74.7378L152.499 73.8108ZM61.4481 162.168C62.0375 162.936 63.1378 163.081 63.9058 162.492L63.1944 161.565C62.9384 161.761 62.5717 161.713 62.3752 161.457L61.4481 162.168ZM61.7717 159.711C61.0037 160.3 60.8588 161.4 61.4481 162.168L62.3752 161.457C62.1788 161.201 62.2271 160.834 62.4831 160.638L61.7717 159.711ZM71.5059 152.241L61.7717 159.711L62.4831 160.638L72.2173 153.168L71.5059 152.241ZM73.9635 152.565C73.3742 151.797 72.2739 151.652 71.5059 152.241L72.2173 153.168C72.4733 152.972 72.84 153.02 73.0365 153.276L73.9635 152.565ZM73.64 155.022C74.408 154.433 74.5528 153.333 73.9635 152.565L73.0365 153.276C73.2329 153.532 73.1846 153.899 72.9286 154.095L73.64 155.022ZM63.9058 162.492L73.64 155.022L72.9286 154.095L63.1944 161.565L63.9058 162.492ZM163.78 84.385C163.524 84.5814 163.158 84.5331 162.961 84.2771L162.034 84.9885C162.623 85.7565 163.724 85.9014 164.492 85.3121L163.78 84.385ZM173.515 76.9157L163.78 84.385L164.492 85.3121L174.226 77.8428L173.515 76.9157ZM173.622 76.0965C173.819 76.3525 173.771 76.7192 173.515 76.9157L174.226 77.8427C174.994 77.2534 175.139 76.1531 174.549 75.3851L173.622 76.0965ZM172.803 75.9886C173.059 75.7922 173.426 75.8405 173.622 76.0965L174.549 75.3851C173.96 74.6171 172.86 74.4722 172.092 75.0616L172.803 75.9886ZM163.069 83.4579L172.803 75.9886L172.092 75.0616L162.358 82.5309L163.069 83.4579ZM162.961 84.2771C162.765 84.0211 162.813 83.6544 163.069 83.4579L162.358 82.5309C161.59 83.1202 161.445 84.2205 162.034 84.9885L162.961 84.2771ZM53.0905 143.765C52.1962 144.136 51.7715 145.161 52.1419 146.055L53.2215 145.608C53.098 145.31 53.2396 144.968 53.5377 144.845L53.0905 143.765ZM64.4263 139.07L53.0905 143.765L53.5377 144.845L64.8734 140.149L64.4263 139.07ZM66.7164 140.018C66.346 139.124 65.3206 138.699 64.4262 139.07L64.8734 140.149C65.1715 140.026 65.5133 140.168 65.6368 140.466L66.7164 140.018ZM65.7678 142.309C66.6622 141.938 67.0869 140.913 66.7164 140.018L65.6368 140.466C65.7603 140.764 65.6187 141.106 65.3206 141.229L65.7678 142.309ZM54.4321 147.004L65.7678 142.309L65.3206 141.229L53.9849 145.924L54.4321 147.004ZM52.1419 146.055C52.5124 146.95 53.5377 147.375 54.4321 147.004L53.9849 145.924C53.6868 146.048 53.345 145.906 53.2215 145.608L52.1419 146.055ZM171.122 97.4088C170.824 97.5323 170.482 97.3908 170.358 97.0926L169.279 97.5398C169.649 98.4342 170.674 98.8589 171.569 98.4884L171.122 97.4088ZM182.457 92.7134L171.122 97.4088L171.569 98.4884L182.905 93.793L182.457 92.7134ZM182.774 91.9501C182.897 92.2482 182.755 92.59 182.457 92.7134L182.905 93.793C183.799 93.4226 184.224 92.3972 183.853 91.5029L182.774 91.9501ZM182.01 91.6339C182.308 91.5104 182.65 91.6519 182.774 91.9501L183.853 91.5029C183.483 90.6085 182.457 90.1838 181.563 90.5543L182.01 91.6339ZM170.674 96.3293L182.01 91.6339L181.563 90.5543L170.227 95.2497L170.674 96.3293ZM170.358 97.0926C170.235 96.7945 170.376 96.4527 170.674 96.3293L170.227 95.2497C169.333 95.6201 168.908 96.6455 169.279 97.5398L170.358 97.0926Z" fill="#607C82" style="mix-blend-mode:overlay" mask="url(#path-63-inside-1_1528_14437)"/>
</g>
<g filter="url(#filter2_dii_1528_14437)">
<circle cx="117.998" cy="118.775" r="51.4158" transform="rotate(90 117.998 118.775)" fill="url(#paint63_radial_1528_14437)"/>
<circle cx="117.998" cy="118.775" r="49.663" transform="rotate(90 117.998 118.775)" stroke="url(#paint64_radial_1528_14437)" stroke-width="3.50562"/>
</g>
<path d="M126.479 111.73C131.164 116.417 131.163 124.014 126.477 128.7C121.791 133.386 114.194 133.386 109.507 128.7C104.821 124.014 104.82 116.417 109.506 111.73" stroke="white" stroke-width="4" stroke-linecap="round" stroke-linejoin="round"/>
<path d="M118.008 105.539V118.872" stroke="white" stroke-width="4" stroke-linecap="round" stroke-linejoin="round"/>
<defs>
<filter id="filter0_ddi_1528_14437" x="17.5065" y="13.6057" width="215.01" height="215.01" filterUnits="userSpaceOnUse" color-interpolation-filters="sRGB">
<feFlood flood-opacity="0" result="BackgroundImageFix"/>
<feColorMatrix in="SourceAlpha" type="matrix" values="0 0 0 0 0 0 0 0 0 0 0 0 0 0 0 0 0 0 127 0" result="hardAlpha"/>
<feOffset dx="7.01124" dy="2.33708"/>
<feGaussianBlur stdDeviation="12.8539"/>
<feColorMatrix type="matrix" values="0 0 0 0 0.177083 0 0 0 0 0.332917 0 0 0 0 0.566667 0 0 0 0.21 0"/>
<feBlend mode="normal" in2="BackgroundImageFix" result="effect1_dropShadow_1528_14437"/>
<feColorMatrix in="SourceAlpha" type="matrix" values="0 0 0 0 0 0 0 0 0 0 0 0 0 0 0 0 0 0 127 0" result="hardAlpha"/>
<feOffset dx="2.33708" dy="4.67416"/>
<feGaussianBlur stdDeviation="3.50562"/>
<feColorMatrix type="matrix" values="0 0 0 0 0.289688 0 0 0 0 0.443812 0 0 0 0 0.675 0 0 0 0.1 0"/>
<feBlend mode="normal" in2="effect1_dropShadow_1528_14437" result="effect2_dropShadow_1528_14437"/>
<feBlend mode="normal" in="SourceGraphic" in2="effect2_dropShadow_1528_14437" result="shape"/>
<feColorMatrix in="SourceAlpha" type="matrix" values="0 0 0 0 0 0 0 0 0 0 0 0 0 0 0 0 0 0 127 0" result="hardAlpha"/>
<feOffset dy="-7.01124"/>
<feGaussianBlur stdDeviation="1.16854"/>
<feComposite in2="hardAlpha" operator="arithmetic" k2="-1" k3="1"/>
<feColorMatrix type="matrix" values="0 0 0 0 0 0 0 0 0 0 0 0 0 0 0 0 0 0 0.04 0"/>
<feBlend mode="normal" in2="shape" result="effect3_innerShadow_1528_14437"/>
</filter>
<filter id="filter1_d_1528_14437" x="45.5519" y="46.9096" width="146.065" height="146.069" filterUnits="userSpaceOnUse" color-interpolation-filters="sRGB">
<feFlood flood-opacity="0" result="BackgroundImageFix"/>
<feColorMatrix in="SourceAlpha" type="matrix" values="0 0 0 0 0 0 0 0 0 0 0 0 0 0 0 0 0 0 127 0" result="hardAlpha"/>
<feOffset dx="0.58427" dy="1.16854"/>
<feGaussianBlur stdDeviation="1.16854"/>
<feColorMatrix type="matrix" values="0 0 0 0 0 0 0 0 0 0 0 0 0 0 0 0 0 0 0.25 0"/>
<feBlend mode="normal" in2="BackgroundImageFix" result="effect1_dropShadow_1528_14437"/>
<feBlend mode="normal" in="SourceGraphic" in2="effect1_dropShadow_1528_14437" result="shape"/>
</filter>
<filter id="filter2_dii_1528_14437" x="39.7095" y="65.0223" width="156.581" height="163.596" filterUnits="userSpaceOnUse" color-interpolation-filters="sRGB">
<feFlood flood-opacity="0" result="BackgroundImageFix"/>
<feColorMatrix in="SourceAlpha" type="matrix" values="0 0 0 0 0 0 0 0 0 0 0 0 0 0 0 0 0 0 127 0" result="hardAlpha"/>
<feOffset dy="31.5506"/>
<feGaussianBlur stdDeviation="13.4382"/>
<feColorMatrix type="matrix" values="0 0 0 0 0.0276042 0 0 0 0 0.0499375 0 0 0 0 0.0625 0 0 0 0.7 0"/>
<feBlend mode="normal" in2="BackgroundImageFix" result="effect1_dropShadow_1528_14437"/>
<feBlend mode="normal" in="SourceGraphic" in2="effect1_dropShadow_1528_14437" result="shape"/>
<feColorMatrix in="SourceAlpha" type="matrix" values="0 0 0 0 0 0 0 0 0 0 0 0 0 0 0 0 0 0 127 0" result="hardAlpha"/>
<feOffset dx="1.16854" dy="1.16854"/>
<feGaussianBlur stdDeviation="0.58427"/>
<feComposite in2="hardAlpha" operator="arithmetic" k2="-1" k3="1"/>
<feColorMatrix type="matrix" values="0 0 0 0 1 0 0 0 0 1 0 0 0 0 1 0 0 0 1 0"/>
<feBlend mode="normal" in2="shape" result="effect2_innerShadow_1528_14437"/>
<feColorMatrix in="SourceAlpha" type="matrix" values="0 0 0 0 0 0 0 0 0 0 0 0 0 0 0 0 0 0 127 0" result="hardAlpha"/>
<feOffset dx="-4.67416" dy="-4.67416"/>
<feGaussianBlur stdDeviation="1.16854"/>
<feComposite in2="hardAlpha" operator="arithmetic" k2="-1" k3="1"/>
<feColorMatrix type="matrix" values="0 0 0 0 0.0291667 0 0 0 0 0.0675 0 0 0 0 0.125 0 0 0 0.1 0"/>
<feBlend mode="normal" in2="effect2_innerShadow_1528_14437" result="effect3_innerShadow_1528_14437"/>
</filter>
<linearGradient id="paint0_linear_1528_14437" x1="53.5424" y1="48.4922" x2="53.5424" y2="58.702" gradientUnits="userSpaceOnUse">
<stop stop-color="#A38CEE"/>
<stop offset="1" stop-color="#B353FF"/>
</linearGradient>
<linearGradient id="paint1_linear_1528_14437" x1="41.5391" y1="63.3036" x2="41.5391" y2="73.5135" gradientUnits="userSpaceOnUse">
<stop stop-color="#A38CEE"/>
<stop offset="1" stop-color="#B353FF"/>
</linearGradient>
<linearGradient id="paint2_linear_1528_14437" x1="32.8962" y1="80.287" x2="32.8962" y2="90.4968" gradientUnits="userSpaceOnUse">
<stop stop-color="#A38CEE"/>
<stop offset="1" stop-color="#B353FF"/>
</linearGradient>
<linearGradient id="paint3_linear_1528_14437" x1="27.9587" y1="98.6963" x2="27.9587" y2="108.906" gradientUnits="userSpaceOnUse">
<stop stop-color="#A38CEE"/>
<stop offset="1" stop-color="#B353FF"/>
</linearGradient>
<linearGradient id="paint4_linear_1528_14437" x1="26.9595" y1="117.728" x2="26.9595" y2="127.938" gradientUnits="userSpaceOnUse">
<stop stop-color="#A38CEE"/>
<stop offset="1" stop-color="#B353FF"/>
</linearGradient>
<linearGradient id="paint5_linear_1528_14437" x1="29.9422" y1="136.55" x2="29.9422" y2="146.76" gradientUnits="userSpaceOnUse">
<stop stop-color="#A38CEE"/>
<stop offset="1" stop-color="#B353FF"/>
</linearGradient>
<linearGradient id="paint6_linear_1528_14437" x1="36.7763" y1="154.344" x2="36.7763" y2="164.554" gradientUnits="userSpaceOnUse">
<stop stop-color="#A38CEE"/>
<stop offset="1" stop-color="#B353FF"/>
</linearGradient>
<linearGradient id="paint7_linear_1528_14437" x1="47.1574" y1="170.332" x2="47.1574" y2="180.542" gradientUnits="userSpaceOnUse">
<stop stop-color="#A38CEE"/>
<stop offset="1" stop-color="#B353FF"/>
</linearGradient>
<linearGradient id="paint8_linear_1528_14437" x1="60.6293" y1="183.808" x2="60.6293" y2="194.018" gradientUnits="userSpaceOnUse">
<stop stop-color="#A38CEE"/>
<stop offset="1" stop-color="#B353FF"/>
</linearGradient>
<linearGradient id="paint9_linear_1528_14437" x1="76.6135" y1="194.189" x2="76.6135" y2="204.399" gradientUnits="userSpaceOnUse">
<stop stop-color="#A38CEE"/>
<stop offset="1" stop-color="#B353FF"/>
</linearGradient>
<linearGradient id="paint10_linear_1528_14437" x1="94.4076" y1="201.015" x2="94.4076" y2="211.225" gradientUnits="userSpaceOnUse">
<stop stop-color="#A38CEE"/>
<stop offset="1" stop-color="#B353FF"/>
</linearGradient>
<linearGradient id="paint11_linear_1528_14437" x1="113.237" y1="203.998" x2="113.237" y2="214.208" gradientUnits="userSpaceOnUse">
<stop stop-color="#A38CEE"/>
<stop offset="1" stop-color="#B353FF"/>
</linearGradient>
<linearGradient id="paint12_linear_1528_14437" x1="132.261" y1="202.999" x2="132.261" y2="213.209" gradientUnits="userSpaceOnUse">
<stop stop-color="#A38CEE"/>
<stop offset="1" stop-color="#B353FF"/>
</linearGradient>
<linearGradient id="paint13_linear_1528_14437" x1="150.678" y1="198.069" x2="150.678" y2="208.279" gradientUnits="userSpaceOnUse">
<stop stop-color="#A38CEE"/>
<stop offset="1" stop-color="#B353FF"/>
</linearGradient>
<linearGradient id="paint14_linear_1528_14437" x1="167.654" y1="189.415" x2="167.654" y2="199.624" gradientUnits="userSpaceOnUse">
<stop stop-color="#A38CEE"/>
<stop offset="1" stop-color="#B353FF"/>
</linearGradient>
<linearGradient id="paint15_linear_1528_14437" x1="182.473" y1="177.423" x2="182.473" y2="187.633" gradientUnits="userSpaceOnUse">
<stop stop-color="#A38CEE"/>
<stop offset="1" stop-color="#B353FF"/>
</linearGradient>
<linearGradient id="paint16_linear_1528_14437" x1="194.461" y1="162.612" x2="194.461" y2="172.821" gradientUnits="userSpaceOnUse">
<stop stop-color="#A38CEE"/>
<stop offset="1" stop-color="#B353FF"/>
</linearGradient>
<linearGradient id="paint17_linear_1528_14437" x1="203.112" y1="145.628" x2="203.112" y2="155.838" gradientUnits="userSpaceOnUse">
<stop stop-color="#A38CEE"/>
<stop offset="1" stop-color="#B353FF"/>
</linearGradient>
<linearGradient id="paint18_linear_1528_14437" x1="208.041" y1="127.219" x2="208.041" y2="137.429" gradientUnits="userSpaceOnUse">
<stop stop-color="#A38CEE"/>
<stop offset="1" stop-color="#B353FF"/>
</linearGradient>
<linearGradient id="paint19_linear_1528_14437" x1="209.04" y1="108.187" x2="209.04" y2="118.397" gradientUnits="userSpaceOnUse">
<stop stop-color="#A38CEE"/>
<stop offset="1" stop-color="#B353FF"/>
</linearGradient>
<linearGradient id="paint20_linear_1528_14437" x1="206.058" y1="89.3652" x2="206.058" y2="99.575" gradientUnits="userSpaceOnUse">
<stop stop-color="#A38CEE"/>
<stop offset="1" stop-color="#B353FF"/>
</linearGradient>
<linearGradient id="paint21_linear_1528_14437" x1="199.224" y1="71.5711" x2="199.224" y2="81.7809" gradientUnits="userSpaceOnUse">
<stop stop-color="#A38CEE"/>
<stop offset="1" stop-color="#B353FF"/>
</linearGradient>
<linearGradient id="paint22_linear_1528_14437" x1="188.85" y1="55.5869" x2="188.85" y2="65.7967" gradientUnits="userSpaceOnUse">
<stop stop-color="#A38CEE"/>
<stop offset="1" stop-color="#B353FF"/>
</linearGradient>
<linearGradient id="paint23_linear_1528_14437" x1="175.371" y1="42.1072" x2="175.371" y2="52.317" gradientUnits="userSpaceOnUse">
<stop stop-color="#A38CEE"/>
<stop offset="1" stop-color="#B353FF"/>
</linearGradient>
<linearGradient id="paint24_linear_1528_14437" x1="159.394" y1="31.7261" x2="159.394" y2="41.9359" gradientUnits="userSpaceOnUse">
<stop stop-color="#A38CEE"/>
<stop offset="1" stop-color="#B353FF"/>
</linearGradient>
<linearGradient id="paint25_linear_1528_14437" x1="141.6" y1="24.8998" x2="141.6" y2="35.1096" gradientUnits="userSpaceOnUse">
<stop stop-color="#A38CEE"/>
<stop offset="1" stop-color="#B353FF"/>
</linearGradient>
<linearGradient id="paint26_linear_1528_14437" x1="122.771" y1="21.9171" x2="122.771" y2="32.1269" gradientUnits="userSpaceOnUse">
<stop stop-color="#A38CEE"/>
<stop offset="1" stop-color="#B353FF"/>
</linearGradient>
<linearGradient id="paint27_linear_1528_14437" x1="103.739" y1="22.9163" x2="103.739" y2="33.1261" gradientUnits="userSpaceOnUse">
<stop stop-color="#A38CEE"/>
<stop offset="1" stop-color="#B353FF"/>
</linearGradient>
<linearGradient id="paint28_linear_1528_14437" x1="85.3294" y1="27.8459" x2="85.3294" y2="38.0558" gradientUnits="userSpaceOnUse">
<stop stop-color="#A38CEE"/>
<stop offset="1" stop-color="#B353FF"/>
</linearGradient>
<linearGradient id="paint29_linear_1528_14437" x1="68.346" y1="36.5006" x2="68.346" y2="46.7104" gradientUnits="userSpaceOnUse">
<stop stop-color="#A38CEE"/>
<stop offset="1" stop-color="#B353FF"/>
</linearGradient>
<linearGradient id="paint30_linear_1528_14437" x1="40.9242" y1="34.8789" x2="40.9242" y2="47.0867" gradientUnits="userSpaceOnUse">
<stop/>
<stop offset="1" stop-color="#AB55EF"/>
</linearGradient>
<linearGradient id="paint31_linear_1528_14437" x1="26.5833" y1="52.5897" x2="26.5833" y2="64.7975" gradientUnits="userSpaceOnUse">
<stop/>
<stop offset="1" stop-color="#AB55EF"/>
</linearGradient>
<linearGradient id="paint32_linear_1528_14437" x1="16.2307" y1="72.8959" x2="16.2307" y2="85.1036" gradientUnits="userSpaceOnUse">
<stop/>
<stop offset="1" stop-color="#AB55EF"/>
</linearGradient>
<linearGradient id="paint33_linear_1528_14437" x1="10.3384" y1="94.9106" x2="10.3384" y2="107.118" gradientUnits="userSpaceOnUse">
<stop/>
<stop offset="1" stop-color="#AB55EF"/>
</linearGradient>
<linearGradient id="paint34_linear_1528_14437" x1="9.1438" y1="117.663" x2="9.1438" y2="129.871" gradientUnits="userSpaceOnUse">
<stop/>
<stop offset="1" stop-color="#AB55EF"/>
</linearGradient>
<linearGradient id="paint35_linear_1528_14437" x1="12.7131" y1="140.17" x2="12.7131" y2="152.378" gradientUnits="userSpaceOnUse">
<stop/>
<stop offset="1" stop-color="#AB55EF"/>
</linearGradient>
<linearGradient id="paint36_linear_1528_14437" x1="20.8788" y1="161.446" x2="20.8788" y2="173.654" gradientUnits="userSpaceOnUse">
<stop/>
<stop offset="1" stop-color="#AB55EF"/>
</linearGradient>
<linearGradient id="paint37_linear_1528_14437" x1="33.2866" y1="180.561" x2="33.2866" y2="192.769" gradientUnits="userSpaceOnUse">
<stop/>
<stop offset="1" stop-color="#AB55EF"/>
</linearGradient>
<linearGradient id="paint38_linear_1528_14437" x1="49.4012" y1="196.672" x2="49.4012" y2="208.88" gradientUnits="userSpaceOnUse">
<stop/>
<stop offset="1" stop-color="#AB55EF"/>
</linearGradient>
<linearGradient id="paint39_linear_1528_14437" x1="68.5127" y1="209.088" x2="68.5127" y2="221.295" gradientUnits="userSpaceOnUse">
<stop/>
<stop offset="1" stop-color="#AB55EF"/>
</linearGradient>
<linearGradient id="paint40_linear_1528_14437" x1="89.7889" y1="217.253" x2="89.7889" y2="229.461" gradientUnits="userSpaceOnUse">
<stop/>
<stop offset="1" stop-color="#AB55EF"/>
</linearGradient>
<linearGradient id="paint41_linear_1528_14437" x1="112.296" y1="220.815" x2="112.296" y2="233.023" gradientUnits="userSpaceOnUse">
<stop/>
<stop offset="1" stop-color="#AB55EF"/>
</linearGradient>
<linearGradient id="paint42_linear_1528_14437" x1="135.056" y1="219.62" x2="135.056" y2="231.828" gradientUnits="userSpaceOnUse">
<stop/>
<stop offset="1" stop-color="#AB55EF"/>
</linearGradient>
<linearGradient id="paint43_linear_1528_14437" x1="157.063" y1="213.724" x2="157.063" y2="225.932" gradientUnits="userSpaceOnUse">
<stop/>
<stop offset="1" stop-color="#AB55EF"/>
</linearGradient>
<linearGradient id="paint44_linear_1528_14437" x1="177.377" y1="203.375" x2="177.377" y2="215.583" gradientUnits="userSpaceOnUse">
<stop/>
<stop offset="1" stop-color="#AB55EF"/>
</linearGradient>
<linearGradient id="paint45_linear_1528_14437" x1="195.084" y1="189.038" x2="195.084" y2="201.246" gradientUnits="userSpaceOnUse">
<stop/>
<stop offset="1" stop-color="#AB55EF"/>
</linearGradient>
<linearGradient id="paint46_linear_1528_14437" x1="209.425" y1="171.328" x2="209.425" y2="183.535" gradientUnits="userSpaceOnUse">
<stop/>
<stop offset="1" stop-color="#AB55EF"/>
</linearGradient>
<linearGradient id="paint47_linear_1528_14437" x1="219.769" y1="151.025" x2="219.769" y2="163.233" gradientUnits="userSpaceOnUse">
<stop/>
<stop offset="1" stop-color="#AB55EF"/>
</linearGradient>
<linearGradient id="paint48_linear_1528_14437" x1="225.662" y1="129.011" x2="225.662" y2="141.218" gradientUnits="userSpaceOnUse">
<stop/>
<stop offset="1" stop-color="#AB55EF"/>
</linearGradient>
<linearGradient id="paint49_linear_1528_14437" x1="226.864" y1="106.254" x2="226.864" y2="118.462" gradientUnits="userSpaceOnUse">
<stop/>
<stop offset="1" stop-color="#AB55EF"/>
</linearGradient>
<linearGradient id="paint50_linear_1528_14437" x1="223.295" y1="83.7475" x2="223.295" y2="95.9552" gradientUnits="userSpaceOnUse">
<stop/>
<stop offset="1" stop-color="#AB55EF"/>
</linearGradient>
<linearGradient id="paint51_linear_1528_14437" x1="215.121" y1="62.4713" x2="215.121" y2="74.6791" gradientUnits="userSpaceOnUse">
<stop/>
<stop offset="1" stop-color="#AB55EF"/>
</linearGradient>
<linearGradient id="paint52_linear_1528_14437" x1="202.713" y1="43.3598" x2="202.713" y2="55.5675" gradientUnits="userSpaceOnUse">
<stop/>
<stop offset="1" stop-color="#AB55EF"/>
</linearGradient>
<linearGradient id="paint53_linear_1528_14437" x1="186.599" y1="27.2452" x2="186.599" y2="39.453" gradientUnits="userSpaceOnUse">
<stop/>
<stop offset="1" stop-color="#AB55EF"/>
</linearGradient>
<linearGradient id="paint54_linear_1528_14437" x1="167.487" y1="14.8296" x2="167.487" y2="27.0374" gradientUnits="userSpaceOnUse">
<stop/>
<stop offset="1" stop-color="#AB55EF"/>
</linearGradient>
<linearGradient id="paint55_linear_1528_14437" x1="146.211" y1="6.66777" x2="146.211" y2="18.8755" gradientUnits="userSpaceOnUse">
<stop/>
<stop offset="1" stop-color="#AB55EF"/>
</linearGradient>
<linearGradient id="paint56_linear_1528_14437" x1="123.704" y1="3.10242" x2="123.704" y2="15.3102" gradientUnits="userSpaceOnUse">
<stop/>
<stop offset="1" stop-color="#AB55EF"/>
</linearGradient>
<linearGradient id="paint57_linear_1528_14437" x1="100.944" y1="4.29703" x2="100.944" y2="16.5048" gradientUnits="userSpaceOnUse">
<stop/>
<stop offset="1" stop-color="#AB55EF"/>
</linearGradient>
<linearGradient id="paint58_linear_1528_14437" x1="78.9372" y1="10.1932" x2="78.9372" y2="22.401" gradientUnits="userSpaceOnUse">
<stop/>
<stop offset="1" stop-color="#AB55EF"/>
</linearGradient>
<linearGradient id="paint59_linear_1528_14437" x1="58.6311" y1="20.5419" x2="58.6311" y2="32.7497" gradientUnits="userSpaceOnUse">
<stop/>
<stop offset="1" stop-color="#AB55EF"/>
</linearGradient>
<radialGradient id="paint60_angular_1528_14437" cx="0" cy="0" r="1" gradientUnits="userSpaceOnUse" gradientTransform="translate(117.999 118.774) rotate(105.651) scale(84.9476)">
<stop offset="0.217592" stop-color="#597592"/>
<stop offset="0.426319" stop-color="#506983"/>
<stop offset="0.859911" stop-color="#3C546C"/>
</radialGradient>
<radialGradient id="paint61_angular_1528_14437" cx="0" cy="0" r="1" gradientUnits="userSpaceOnUse" gradientTransform="translate(111.458 96.9953) rotate(60.2089) scale(111.519 50.8069)">
<stop offset="0.512442" stop-color="#2C3948"/>
<stop offset="1" stop-color="#202D39"/>
</radialGradient>
<radialGradient id="paint62_radial_1528_14437" cx="0" cy="0" r="1" gradientUnits="userSpaceOnUse" gradientTransform="translate(194.246 79.045) rotate(147.619) scale(170.194 170.196)">
<stop stop-color="#324956"/>
<stop offset="0.237763" stop-color="#364A56"/>
<stop offset="1" stop-color="#19252C"/>
</radialGradient>
<radialGradient id="paint63_radial_1528_14437" cx="0" cy="0" r="1" gradientUnits="userSpaceOnUse" gradientTransform="translate(129.976 170.191) rotate(-113.73) scale(95.0966 63.9712)">
<stop stop-color="#A38CEE"/>
<stop offset="1" stop-color="#8B1CE1"/>
</radialGradient>
<radialGradient id="paint64_radial_1528_14437" cx="0" cy="0" r="1" gradientUnits="userSpaceOnUse" gradientTransform="translate(88.4926 79.0448) rotate(63.8774) scale(101.516)">
<stop stop-color="#7D939C"/>
<stop offset="1" stop-color="#2E3E45"/>
</radialGradient>
</defs>
</svg>
