<svg width="318" height="95" viewBox="0 0 318 95" fill="none" xmlns="http://www.w3.org/2000/svg">
<g opacity="0.2">
<mask id="mask0_1522_9983" style="mask-type:alpha" maskUnits="userSpaceOnUse" x="0" y="0" width="318" height="95">
<path d="M37.5591 30.8015C23.537 30.8015 19.5307 45.4736 0 45.4736V95H318V0.664062C279.94 0.664062 259.408 37.5427 244.885 37.5427C230.362 37.5427 235.871 30.8015 220.346 30.8015C204.822 30.8015 200.315 43.4909 182.287 43.4909C164.258 43.4909 159.25 24.8533 146.731 24.8533C134.211 24.8533 133.71 11.7673 111.175 11.7673C88.6394 11.7673 73.115 37.5427 63.0992 37.5427C53.0835 37.5427 51.5811 30.8015 37.5591 30.8015Z" fill="white" fill-opacity="0.8"/>
</mask>
<g mask="url(#mask0_1522_9983)">
<g opacity="0.5">
<path d="M287 2L419 104.3" stroke="url(#paint0_linear_1522_9983)"/>
<path d="M297 2L429 104.3" stroke="url(#paint1_linear_1522_9983)"/>
<path d="M307 2L439 104.3" stroke="url(#paint2_linear_1522_9983)"/>
<path d="M317 2L449 104.3" stroke="url(#paint3_linear_1522_9983)"/>
<path d="M277 2L409 104.3" stroke="url(#paint4_linear_1522_9983)"/>
<path d="M267 2L399 104.3" stroke="url(#paint5_linear_1522_9983)"/>
<path d="M257 2L389 104.3" stroke="url(#paint6_linear_1522_9983)"/>
<path d="M247 2L379 104.3" stroke="url(#paint7_linear_1522_9983)"/>
<path d="M237 2L369 104.3" stroke="url(#paint8_linear_1522_9983)"/>
<path d="M227 2L359 104.3" stroke="url(#paint9_linear_1522_9983)"/>
<path d="M217 2L349 104.3" stroke="url(#paint10_linear_1522_9983)"/>
<path d="M177 2L309 104.3" stroke="url(#paint11_linear_1522_9983)"/>
<path d="M187 2L319 104.3" stroke="url(#paint12_linear_1522_9983)"/>
<path d="M197 2L329 104.3" stroke="url(#paint13_linear_1522_9983)"/>
<path d="M207 2L339 104.3" stroke="url(#paint14_linear_1522_9983)"/>
<path d="M167 2L299 104.3" stroke="url(#paint15_linear_1522_9983)"/>
<path d="M157 2L289 104.3" stroke="url(#paint16_linear_1522_9983)"/>
<path d="M147 2L279 104.3" stroke="url(#paint17_linear_1522_9983)"/>
<path d="M137 2L269 104.3" stroke="url(#paint18_linear_1522_9983)"/>
<path d="M127 2L259 104.3" stroke="url(#paint19_linear_1522_9983)"/>
<path d="M117 2L249 104.3" stroke="url(#paint20_linear_1522_9983)"/>
<path d="M107 2L239 104.3" stroke="url(#paint21_linear_1522_9983)"/>
<path d="M67 2L199 104.3" stroke="url(#paint22_linear_1522_9983)"/>
<path d="M77 2L209 104.3" stroke="url(#paint23_linear_1522_9983)"/>
<path d="M87 2L219 104.3" stroke="url(#paint24_linear_1522_9983)"/>
<path d="M97 2L229 104.3" stroke="url(#paint25_linear_1522_9983)"/>
<path d="M57 2L189 104.3" stroke="url(#paint26_linear_1522_9983)"/>
<path d="M47 2L179 104.3" stroke="url(#paint27_linear_1522_9983)"/>
<path d="M37 2L169 104.3" stroke="url(#paint28_linear_1522_9983)"/>
<path d="M27 2L159 104.3" stroke="url(#paint29_linear_1522_9983)"/>
<path d="M17 2L149 104.3" stroke="url(#paint30_linear_1522_9983)"/>
<path d="M7 2L139 104.3" stroke="url(#paint31_linear_1522_9983)"/>
<path d="M-3 2L129 104.3" stroke="url(#paint32_linear_1522_9983)"/>
<path d="M-43 2L89 104.3" stroke="url(#paint33_linear_1522_9983)"/>
<path d="M-33 2L99 104.3" stroke="url(#paint34_linear_1522_9983)"/>
<path d="M-23 2L109 104.3" stroke="url(#paint35_linear_1522_9983)"/>
<path d="M-13 2L119 104.3" stroke="url(#paint36_linear_1522_9983)"/>
<path d="M-53 2L79 104.3" stroke="url(#paint37_linear_1522_9983)"/>
<path d="M-63 2L69 104.3" stroke="url(#paint38_linear_1522_9983)"/>
<path d="M-73 2L59 104.3" stroke="url(#paint39_linear_1522_9983)"/>
<path d="M-83 2L49 104.3" stroke="url(#paint40_linear_1522_9983)"/>
<path d="M-93 2L39 104.3" stroke="url(#paint41_linear_1522_9983)"/>
<path d="M-103 2L29 104.3" stroke="url(#paint42_linear_1522_9983)"/>
<path d="M-113 2L19 104.3" stroke="url(#paint43_linear_1522_9983)"/>
</g>
</g>
</g>
<defs>
<linearGradient id="paint0_linear_1522_9983" x1="287" y1="21.6643" x2="369.042" y2="21.6643" gradientUnits="userSpaceOnUse">
<stop stop-color="white"/>
<stop offset="1" stop-color="white"/>
</linearGradient>
<linearGradient id="paint1_linear_1522_9983" x1="297" y1="21.6643" x2="379.042" y2="21.6643" gradientUnits="userSpaceOnUse">
<stop stop-color="white"/>
<stop offset="1" stop-color="white"/>
</linearGradient>
<linearGradient id="paint2_linear_1522_9983" x1="307" y1="21.6643" x2="389.042" y2="21.6643" gradientUnits="userSpaceOnUse">
<stop stop-color="white"/>
<stop offset="1" stop-color="white"/>
</linearGradient>
<linearGradient id="paint3_linear_1522_9983" x1="317" y1="21.6643" x2="399.042" y2="21.6643" gradientUnits="userSpaceOnUse">
<stop stop-color="white"/>
<stop offset="1" stop-color="white"/>
</linearGradient>
<linearGradient id="paint4_linear_1522_9983" x1="277" y1="21.6643" x2="359.042" y2="21.6643" gradientUnits="userSpaceOnUse">
<stop stop-color="white"/>
<stop offset="1" stop-color="white"/>
</linearGradient>
<linearGradient id="paint5_linear_1522_9983" x1="267" y1="21.6643" x2="349.042" y2="21.6643" gradientUnits="userSpaceOnUse">
<stop stop-color="white"/>
<stop offset="1" stop-color="white"/>
</linearGradient>
<linearGradient id="paint6_linear_1522_9983" x1="257" y1="21.6643" x2="339.042" y2="21.6643" gradientUnits="userSpaceOnUse">
<stop stop-color="white"/>
<stop offset="1" stop-color="white"/>
</linearGradient>
<linearGradient id="paint7_linear_1522_9983" x1="247" y1="21.6643" x2="329.042" y2="21.6643" gradientUnits="userSpaceOnUse">
<stop stop-color="white"/>
<stop offset="1" stop-color="white"/>
</linearGradient>
<linearGradient id="paint8_linear_1522_9983" x1="237" y1="21.6643" x2="319.042" y2="21.6643" gradientUnits="userSpaceOnUse">
<stop stop-color="white"/>
<stop offset="1" stop-color="white"/>
</linearGradient>
<linearGradient id="paint9_linear_1522_9983" x1="227" y1="21.6643" x2="309.042" y2="21.6643" gradientUnits="userSpaceOnUse">
<stop stop-color="white"/>
<stop offset="1" stop-color="white"/>
</linearGradient>
<linearGradient id="paint10_linear_1522_9983" x1="217" y1="21.6643" x2="299.042" y2="21.6643" gradientUnits="userSpaceOnUse">
<stop stop-color="white"/>
<stop offset="1" stop-color="white"/>
</linearGradient>
<linearGradient id="paint11_linear_1522_9983" x1="177" y1="21.6643" x2="259.042" y2="21.6643" gradientUnits="userSpaceOnUse">
<stop stop-color="white"/>
<stop offset="1" stop-color="white"/>
</linearGradient>
<linearGradient id="paint12_linear_1522_9983" x1="187" y1="21.6643" x2="269.042" y2="21.6643" gradientUnits="userSpaceOnUse">
<stop stop-color="white"/>
<stop offset="1" stop-color="white"/>
</linearGradient>
<linearGradient id="paint13_linear_1522_9983" x1="197" y1="21.6643" x2="279.042" y2="21.6643" gradientUnits="userSpaceOnUse">
<stop stop-color="white"/>
<stop offset="1" stop-color="white"/>
</linearGradient>
<linearGradient id="paint14_linear_1522_9983" x1="207" y1="21.6643" x2="289.042" y2="21.6643" gradientUnits="userSpaceOnUse">
<stop stop-color="white"/>
<stop offset="1" stop-color="white"/>
</linearGradient>
<linearGradient id="paint15_linear_1522_9983" x1="167" y1="21.6643" x2="249.042" y2="21.6643" gradientUnits="userSpaceOnUse">
<stop stop-color="white"/>
<stop offset="1" stop-color="white"/>
</linearGradient>
<linearGradient id="paint16_linear_1522_9983" x1="157" y1="21.6643" x2="239.042" y2="21.6643" gradientUnits="userSpaceOnUse">
<stop stop-color="white"/>
<stop offset="1" stop-color="white"/>
</linearGradient>
<linearGradient id="paint17_linear_1522_9983" x1="147" y1="21.6643" x2="229.042" y2="21.6643" gradientUnits="userSpaceOnUse">
<stop stop-color="white"/>
<stop offset="1" stop-color="white"/>
</linearGradient>
<linearGradient id="paint18_linear_1522_9983" x1="137" y1="21.6643" x2="219.042" y2="21.6643" gradientUnits="userSpaceOnUse">
<stop stop-color="white"/>
<stop offset="1" stop-color="white"/>
</linearGradient>
<linearGradient id="paint19_linear_1522_9983" x1="127" y1="21.6643" x2="209.042" y2="21.6643" gradientUnits="userSpaceOnUse">
<stop stop-color="white"/>
<stop offset="1" stop-color="white"/>
</linearGradient>
<linearGradient id="paint20_linear_1522_9983" x1="117" y1="21.6643" x2="199.042" y2="21.6643" gradientUnits="userSpaceOnUse">
<stop stop-color="white"/>
<stop offset="1" stop-color="white"/>
</linearGradient>
<linearGradient id="paint21_linear_1522_9983" x1="107" y1="21.6643" x2="189.042" y2="21.6643" gradientUnits="userSpaceOnUse">
<stop stop-color="white"/>
<stop offset="1" stop-color="white"/>
</linearGradient>
<linearGradient id="paint22_linear_1522_9983" x1="67" y1="21.6643" x2="149.042" y2="21.6643" gradientUnits="userSpaceOnUse">
<stop stop-color="white"/>
<stop offset="1" stop-color="white"/>
</linearGradient>
<linearGradient id="paint23_linear_1522_9983" x1="77" y1="21.6643" x2="159.042" y2="21.6643" gradientUnits="userSpaceOnUse">
<stop stop-color="white"/>
<stop offset="1" stop-color="white"/>
</linearGradient>
<linearGradient id="paint24_linear_1522_9983" x1="87" y1="21.6643" x2="169.042" y2="21.6643" gradientUnits="userSpaceOnUse">
<stop stop-color="white"/>
<stop offset="1" stop-color="white"/>
</linearGradient>
<linearGradient id="paint25_linear_1522_9983" x1="97" y1="21.6643" x2="179.042" y2="21.6643" gradientUnits="userSpaceOnUse">
<stop stop-color="white"/>
<stop offset="1" stop-color="white"/>
</linearGradient>
<linearGradient id="paint26_linear_1522_9983" x1="57" y1="21.6643" x2="139.042" y2="21.6643" gradientUnits="userSpaceOnUse">
<stop stop-color="white"/>
<stop offset="1" stop-color="white"/>
</linearGradient>
<linearGradient id="paint27_linear_1522_9983" x1="47" y1="21.6643" x2="129.042" y2="21.6643" gradientUnits="userSpaceOnUse">
<stop stop-color="white"/>
<stop offset="1" stop-color="white"/>
</linearGradient>
<linearGradient id="paint28_linear_1522_9983" x1="37" y1="21.6643" x2="119.042" y2="21.6643" gradientUnits="userSpaceOnUse">
<stop stop-color="white"/>
<stop offset="1" stop-color="white"/>
</linearGradient>
<linearGradient id="paint29_linear_1522_9983" x1="27" y1="21.6643" x2="109.042" y2="21.6643" gradientUnits="userSpaceOnUse">
<stop stop-color="white"/>
<stop offset="1" stop-color="white"/>
</linearGradient>
<linearGradient id="paint30_linear_1522_9983" x1="17" y1="21.6643" x2="99.0417" y2="21.6643" gradientUnits="userSpaceOnUse">
<stop stop-color="white"/>
<stop offset="1" stop-color="white"/>
</linearGradient>
<linearGradient id="paint31_linear_1522_9983" x1="7" y1="21.6643" x2="89.0417" y2="21.6643" gradientUnits="userSpaceOnUse">
<stop stop-color="white"/>
<stop offset="1" stop-color="white"/>
</linearGradient>
<linearGradient id="paint32_linear_1522_9983" x1="-3" y1="21.6643" x2="79.0417" y2="21.6643" gradientUnits="userSpaceOnUse">
<stop stop-color="white"/>
<stop offset="1" stop-color="white"/>
</linearGradient>
<linearGradient id="paint33_linear_1522_9983" x1="-43" y1="21.6643" x2="39.0417" y2="21.6643" gradientUnits="userSpaceOnUse">
<stop stop-color="white"/>
<stop offset="1" stop-color="white"/>
</linearGradient>
<linearGradient id="paint34_linear_1522_9983" x1="-33" y1="21.6643" x2="49.0417" y2="21.6643" gradientUnits="userSpaceOnUse">
<stop stop-color="white"/>
<stop offset="1" stop-color="white"/>
</linearGradient>
<linearGradient id="paint35_linear_1522_9983" x1="-23" y1="21.6643" x2="59.0417" y2="21.6643" gradientUnits="userSpaceOnUse">
<stop stop-color="white"/>
<stop offset="1" stop-color="white"/>
</linearGradient>
<linearGradient id="paint36_linear_1522_9983" x1="-13" y1="21.6643" x2="69.0417" y2="21.6643" gradientUnits="userSpaceOnUse">
<stop stop-color="white"/>
<stop offset="1" stop-color="white"/>
</linearGradient>
<linearGradient id="paint37_linear_1522_9983" x1="-53" y1="21.6643" x2="29.0417" y2="21.6643" gradientUnits="userSpaceOnUse">
<stop stop-color="white"/>
<stop offset="1" stop-color="white"/>
</linearGradient>
<linearGradient id="paint38_linear_1522_9983" x1="-63" y1="21.6643" x2="19.0417" y2="21.6643" gradientUnits="userSpaceOnUse">
<stop stop-color="white"/>
<stop offset="1" stop-color="white"/>
</linearGradient>
<linearGradient id="paint39_linear_1522_9983" x1="-73" y1="21.6643" x2="9.04167" y2="21.6643" gradientUnits="userSpaceOnUse">
<stop stop-color="white"/>
<stop offset="1" stop-color="white"/>
</linearGradient>
<linearGradient id="paint40_linear_1522_9983" x1="-83" y1="21.6643" x2="-0.958334" y2="21.6643" gradientUnits="userSpaceOnUse">
<stop stop-color="white"/>
<stop offset="1" stop-color="white"/>
</linearGradient>
<linearGradient id="paint41_linear_1522_9983" x1="-93" y1="21.6643" x2="-10.9583" y2="21.6643" gradientUnits="userSpaceOnUse">
<stop stop-color="white"/>
<stop offset="1" stop-color="white"/>
</linearGradient>
<linearGradient id="paint42_linear_1522_9983" x1="-103" y1="21.6643" x2="-20.9583" y2="21.6643" gradientUnits="userSpaceOnUse">
<stop stop-color="white"/>
<stop offset="1" stop-color="white"/>
</linearGradient>
<linearGradient id="paint43_linear_1522_9983" x1="-113" y1="21.6643" x2="-30.9583" y2="21.6643" gradientUnits="userSpaceOnUse">
<stop stop-color="white"/>
<stop offset="1" stop-color="white"/>
</linearGradient>
</defs>
</svg>
