<svg width="32" height="33" viewBox="0 0 32 33" fill="none" xmlns="http://www.w3.org/2000/svg">
<path d="M9.45381 3C11.432 2.03901 13.653 1.5 16 1.5C24.2843 1.5 31 8.21573 31 16.5C31 24.7843 24.2843 31.5 16 31.5C7.71573 31.5 1 24.7843 1 16.5C1 13.3442 1.97455 10.416 3.6391 8" stroke="white" stroke-width="2" stroke-miterlimit="10" stroke-linecap="round" stroke-linejoin="round"/>
<path d="M27 17.501C27.5523 17.501 28 17.0533 28 16.501C28 15.9487 27.5523 15.501 27 15.501C26.4477 15.501 26 15.9487 26 16.501C26 17.0533 26.4477 17.501 27 17.501Z" fill="#A789FD"/>
<path d="M27 17.501C27.5523 17.501 28 17.0533 28 16.501C28 15.9487 27.5523 15.501 27 15.501C26.4477 15.501 26 15.9487 26 16.501C26 17.0533 26.4477 17.501 27 17.501Z" fill="url(#paint0_linear_1524_10375)"/>
<path d="M5 17.501C5.55228 17.501 6 17.0533 6 16.501C6 15.9487 5.55228 15.501 5 15.501C4.44772 15.501 4 15.9487 4 16.501C4 17.0533 4.44772 17.501 5 17.501Z" fill="#A789FD"/>
<path d="M5 17.501C5.55228 17.501 6 17.0533 6 16.501C6 15.9487 5.55228 15.501 5 15.501C4.44772 15.501 4 15.9487 4 16.501C4 17.0533 4.44772 17.501 5 17.501Z" fill="url(#paint1_linear_1524_10375)"/>
<path d="M26.0027 11.8799C26.481 11.6037 26.6449 10.9922 26.3687 10.5139C26.0926 10.0356 25.481 9.87174 25.0027 10.1479C24.5244 10.424 24.3606 11.0356 24.6367 11.5139C24.9129 11.9922 25.5244 12.156 26.0027 11.8799Z" fill="#A789FD"/>
<path d="M26.0027 11.8799C26.481 11.6037 26.6449 10.9922 26.3687 10.5139C26.0926 10.0356 25.481 9.87174 25.0027 10.1479C24.5244 10.424 24.3606 11.0356 24.6367 11.5139C24.9129 11.9922 25.5244 12.156 26.0027 11.8799Z" fill="url(#paint2_linear_1524_10375)"/>
<path d="M6.99637 22.8534C7.47465 22.5773 7.63851 21.9657 7.36237 21.4874C7.08623 21.0091 6.47465 20.8453 5.99637 21.1214C5.51809 21.3975 5.35423 22.0091 5.63037 22.4874C5.90651 22.9657 6.51809 23.1295 6.99637 22.8534Z" fill="#A789FD"/>
<path d="M6.99637 22.8534C7.47465 22.5773 7.63851 21.9657 7.36237 21.4874C7.08623 21.0091 6.47465 20.8453 5.99637 21.1214C5.51809 21.3975 5.35423 22.0091 5.63037 22.4874C5.90651 22.9657 6.51809 23.1295 6.99637 22.8534Z" fill="url(#paint3_linear_1524_10375)"/>
<path d="M22.3887 7.48843C22.6649 7.01015 22.501 6.39857 22.0227 6.12243C21.5445 5.84628 20.9329 6.01015 20.6567 6.48843C20.3806 6.9667 20.5445 7.57828 21.0227 7.85443C21.501 8.13057 22.1126 7.9667 22.3887 7.48843Z" fill="#A789FD"/>
<path d="M22.3887 7.48843C22.6649 7.01015 22.501 6.39857 22.0227 6.12243C21.5445 5.84628 20.9329 6.01015 20.6567 6.48843C20.3806 6.9667 20.5445 7.57828 21.0227 7.85443C21.501 8.13057 22.1126 7.9667 22.3887 7.48843Z" fill="url(#paint4_linear_1524_10375)"/>
<path d="M11.3428 26.5144C11.619 26.0361 11.4551 25.4246 10.9768 25.1484C10.4986 24.8723 9.88698 25.0361 9.61084 25.5144C9.3347 25.9927 9.49856 26.6043 9.97684 26.8804C10.4551 27.1566 11.0667 26.9927 11.3428 26.5144Z" fill="#A789FD"/>
<path d="M11.3428 26.5144C11.619 26.0361 11.4551 25.4246 10.9768 25.1484C10.4986 24.8723 9.88698 25.0361 9.61084 25.5144C9.3347 25.9927 9.49856 26.6043 9.97684 26.8804C10.4551 27.1566 11.0667 26.9927 11.3428 26.5144Z" fill="url(#paint5_linear_1524_10375)"/>
<path d="M16 28.501C16.5523 28.501 17 28.0533 17 27.501C17 26.9487 16.5523 26.501 16 26.501C15.4477 26.501 15 26.9487 15 27.501C15 28.0533 15.4477 28.501 16 28.501Z" fill="#A789FD"/>
<path d="M16 28.501C16.5523 28.501 17 28.0533 17 27.501C17 26.9487 16.5523 26.501 16 26.501C15.4477 26.501 15 26.9487 15 27.501C15 28.0533 15.4477 28.501 16 28.501Z" fill="url(#paint6_linear_1524_10375)"/>
<path d="M11.013 7.86328C11.4913 7.58714 11.6551 6.97556 11.379 6.49728C11.1028 6.019 10.4913 5.85514 10.013 6.13128C9.53469 6.40742 9.37083 7.019 9.64697 7.49728C9.92311 7.97556 10.5347 8.13942 11.013 7.86328Z" fill="#A789FD"/>
<path d="M11.013 7.86328C11.4913 7.58714 11.6551 6.97556 11.379 6.49728C11.1028 6.019 10.4913 5.85514 10.013 6.13128C9.53469 6.40742 9.37083 7.019 9.64697 7.49728C9.92311 7.97556 10.5347 8.13942 11.013 7.86328Z" fill="url(#paint7_linear_1524_10375)"/>
<path d="M21.9861 26.8699C22.4644 26.5937 22.6283 25.9822 22.3521 25.5039C22.076 25.0256 21.4644 24.8617 20.9861 25.1379C20.5078 25.414 20.344 26.0256 20.6201 26.5039C20.8963 26.9822 21.5078 27.146 21.9861 26.8699Z" fill="#A789FD"/>
<path d="M21.9861 26.8699C22.4644 26.5937 22.6283 25.9822 22.3521 25.5039C22.076 25.0256 21.4644 24.8617 20.9861 25.1379C20.5078 25.414 20.344 26.0256 20.6201 26.5039C20.8963 26.9822 21.5078 27.146 21.9861 26.8699Z" fill="url(#paint8_linear_1524_10375)"/>
<path d="M7.35261 11.4784C7.62875 11.0001 7.46488 10.3886 6.98661 10.1124C6.50833 9.83627 5.89675 10.0001 5.62061 10.4784C5.34446 10.9567 5.50833 11.5683 5.98661 11.8444C6.46488 12.1206 7.07646 11.9567 7.35261 11.4784Z" fill="#A789FD"/>
<path d="M7.35261 11.4784C7.62875 11.0001 7.46488 10.3886 6.98661 10.1124C6.50833 9.83627 5.89675 10.0001 5.62061 10.4784C5.34446 10.9567 5.50833 11.5683 5.98661 11.8444C6.46488 12.1206 7.07646 11.9567 7.35261 11.4784Z" fill="url(#paint9_linear_1524_10375)"/>
<path d="M26.3785 22.5244C26.6546 22.0462 26.4908 21.4346 26.0125 21.1584C25.5342 20.8823 24.9226 21.0462 24.6465 21.5244C24.3703 22.0027 24.5342 22.6143 25.0125 22.8904C25.4908 23.1666 26.1023 23.0027 26.3785 22.5244Z" fill="#A789FD"/>
<path d="M26.3785 22.5244C26.6546 22.0462 26.4908 21.4346 26.0125 21.1584C25.5342 20.8823 24.9226 21.0462 24.6465 21.5244C24.3703 22.0027 24.5342 22.6143 25.0125 22.8904C25.4908 23.1666 26.1023 23.0027 26.3785 22.5244Z" fill="url(#paint10_linear_1524_10375)"/>
<path d="M16 5.5V16.5L22 20.5" stroke="#A789FD" stroke-width="2" stroke-miterlimit="10" stroke-linecap="round" stroke-linejoin="round"/>
<path d="M16 5.5V16.5L22 20.5" stroke="url(#paint11_linear_1524_10375)" stroke-width="2" stroke-miterlimit="10" stroke-linecap="round" stroke-linejoin="round"/>
<defs>
<linearGradient id="paint0_linear_1524_10375" x1="4" y1="10.3157" x2="18.9167" y2="10.3157" gradientUnits="userSpaceOnUse">
<stop stop-color="#0094FF"/>
<stop offset="1" stop-color="#00AFAF"/>
</linearGradient>
<linearGradient id="paint1_linear_1524_10375" x1="4" y1="10.3157" x2="18.9167" y2="10.3157" gradientUnits="userSpaceOnUse">
<stop stop-color="#0094FF"/>
<stop offset="1" stop-color="#00AFAF"/>
</linearGradient>
<linearGradient id="paint2_linear_1524_10375" x1="4" y1="10.3157" x2="18.9167" y2="10.3157" gradientUnits="userSpaceOnUse">
<stop stop-color="#0094FF"/>
<stop offset="1" stop-color="#00AFAF"/>
</linearGradient>
<linearGradient id="paint3_linear_1524_10375" x1="4" y1="10.3157" x2="18.9167" y2="10.3157" gradientUnits="userSpaceOnUse">
<stop stop-color="#0094FF"/>
<stop offset="1" stop-color="#00AFAF"/>
</linearGradient>
<linearGradient id="paint4_linear_1524_10375" x1="4" y1="10.3157" x2="18.9167" y2="10.3157" gradientUnits="userSpaceOnUse">
<stop stop-color="#0094FF"/>
<stop offset="1" stop-color="#00AFAF"/>
</linearGradient>
<linearGradient id="paint5_linear_1524_10375" x1="4" y1="10.3157" x2="18.9167" y2="10.3157" gradientUnits="userSpaceOnUse">
<stop stop-color="#0094FF"/>
<stop offset="1" stop-color="#00AFAF"/>
</linearGradient>
<linearGradient id="paint6_linear_1524_10375" x1="4" y1="10.3157" x2="18.9167" y2="10.3157" gradientUnits="userSpaceOnUse">
<stop stop-color="#0094FF"/>
<stop offset="1" stop-color="#00AFAF"/>
</linearGradient>
<linearGradient id="paint7_linear_1524_10375" x1="4" y1="10.3157" x2="18.9167" y2="10.3157" gradientUnits="userSpaceOnUse">
<stop stop-color="#0094FF"/>
<stop offset="1" stop-color="#00AFAF"/>
</linearGradient>
<linearGradient id="paint8_linear_1524_10375" x1="4" y1="10.3157" x2="18.9167" y2="10.3157" gradientUnits="userSpaceOnUse">
<stop stop-color="#0094FF"/>
<stop offset="1" stop-color="#00AFAF"/>
</linearGradient>
<linearGradient id="paint9_linear_1524_10375" x1="4" y1="10.3157" x2="18.9167" y2="10.3157" gradientUnits="userSpaceOnUse">
<stop stop-color="#0094FF"/>
<stop offset="1" stop-color="#00AFAF"/>
</linearGradient>
<linearGradient id="paint10_linear_1524_10375" x1="4" y1="10.3157" x2="18.9167" y2="10.3157" gradientUnits="userSpaceOnUse">
<stop stop-color="#0094FF"/>
<stop offset="1" stop-color="#00AFAF"/>
</linearGradient>
<linearGradient id="paint11_linear_1524_10375" x1="16" y1="8.38333" x2="19.7292" y2="8.38333" gradientUnits="userSpaceOnUse">
<stop stop-color="#0094FF"/>
<stop offset="1" stop-color="#00AFAF"/>
</linearGradient>
</defs>
</svg>
