<svg width="42" height="42" viewBox="0 0 42 42" fill="none" xmlns="http://www.w3.org/2000/svg">
<path d="M29.9766 8.32812C30.6095 9.4674 30.9892 10.7333 31.1158 12.1257H31.2424C36.1793 12.1257 40.1034 16.0498 40.1034 20.9867C40.1034 25.9235 36.1793 29.8477 31.2424 29.8477H30.8627" stroke="white" stroke-width="2.53171" stroke-miterlimit="10" stroke-linecap="round" stroke-linejoin="round"/>
<path d="M11.2407 29.8488H9.59513C5.41781 29.8488 2 26.431 2 22.2537C2 18.4561 4.78488 15.2915 8.45586 14.7851C8.45586 14.2788 8.32928 13.899 8.32928 13.3927C8.32928 7.06342 13.3927 2 19.722 2C22.0005 2 24.2791 2.75951 26.0513 3.89878" stroke="white" stroke-width="2.53171" stroke-miterlimit="10" stroke-linecap="round" stroke-linejoin="round"/>
<path d="M11.4956 30.2293C12.3817 31.2419 14.0273 31.4951 15.04 30.609L18.4578 27.6975V37.4446C18.4578 38.8371 19.597 39.9763 20.9895 39.9763C22.3819 39.9763 23.5212 38.8371 23.5212 37.4446V27.6975L26.939 30.609C27.9517 31.4951 29.5973 31.3685 30.4834 30.2293C31.3695 29.2166 31.2429 27.571 30.1036 26.6849L22.5085 20.3556C22.5085 20.3556 22.3819 20.3556 22.3819 20.229L22.2553 20.1024C22.1288 20.1024 22.1288 19.9758 22.0022 19.9758C22.0022 19.9758 21.8756 19.9758 21.8756 19.8492C21.749 19.8492 21.749 19.7227 21.6224 19.7227H21.4958C21.3692 19.7227 21.2427 19.7227 20.9895 19.7227C20.7363 19.7227 20.7363 19.7227 20.4831 19.7227H20.3566C20.23 19.7227 20.1034 19.7227 20.1034 19.8492C20.1034 19.8492 19.9768 19.8492 19.9768 19.9758C19.8502 19.9758 19.8502 20.1024 19.7236 20.1024L19.597 20.229C19.597 20.229 19.4705 20.229 19.4705 20.3556L11.8753 26.6849C10.7361 27.571 10.6095 29.09 11.4956 30.2293Z" stroke="#EF8C55" stroke-width="2.53171" stroke-miterlimit="10" stroke-linecap="round" stroke-linejoin="round"/>
</svg>
